<?xml version="1.0" encoding="utf-8"?>
<!-- Generator: Adobe Illustrator 19.0.0, SVG Export Plug-In . SVG Version: 6.00 Build 0)  -->
<svg version="1.1" id="Layer_1" xmlns="http://www.w3.org/2000/svg" xmlns:xlink="http://www.w3.org/1999/xlink" x="0px" y="0px"
	 viewBox="0 0 100 100" style="enable-background:new 0 0 100 100;" xml:space="preserve">
<path id="XMLID_4_" d="M50,0C22.4,0,0,22.4,0,50s22.4,50,50,50s50-22.4,50-50S77.6,0,50,0z M43,87.6c-7.6-2.4-22.5-9.6-12.1-26.5
	c0.2-0.3,0.7-0.4,1-0.2c3.5,2.9,22.6,17.2,52.7,10.6c0.3-0.1,0.6,0.2,0.6,0.6c-0.6,3.3-4.2,16.1-23.9,17.2
	C61.3,89.3,50.9,90,43,87.6z M59.3,52.4c-0.2,0.1-0.4,0.2-0.6,0.1c-10.7-2.9-18.6-3.9-23.4-4.2c-0.2,0-0.5-0.1-0.6-0.3
	c-1.6-2.6-2.5-5.6-2.5-8.9c0-9.4,7.7-17,17.1-16.8c8.9,0.1,16.3,7.3,16.6,16.2C66,44.2,63.4,49.3,59.3,52.4z M85.3,61.7
	c-0.1,0-0.2,0-0.3-0.1l-14.1-5.5c-0.2-0.1-0.4-0.3-0.4-0.6c0.2-2.2,1.5-12.1,7-13.8c1.8-0.6,4.3-0.1,5.7,1.1
	c2.5,2.1,6.4,7.8,2.8,18.4C85.9,61.6,85.6,61.7,85.3,61.7z"/>
</svg>
