<?xml version="1.0" encoding="utf-8"?>
<!-- Generator: Adobe Illustrator 19.0.0, SVG Export Plug-In . SVG Version: 6.00 Build 0)  -->
<svg version="1.1" id="Layer_1" xmlns="http://www.w3.org/2000/svg" xmlns:xlink="http://www.w3.org/1999/xlink" x="0px" y="0px"
	 viewBox="0 0 100 100" style="enable-background:new 0 0 100 100;" xml:space="preserve">
<g id="XMLID_1_">
	<path id="XMLID_21_" d="M61.8,25.7c-0.6,0.2-1.1,0.3-1.7,0.5c-1.1,0.4-2.3,0.8-3.5,1.2c-2.2,0.8-4.4,1.7-6.6,2.8h0
		c-1.1,0.5-2.1,1-3.2,1.5c-1.9,0.9-3.8,2-5.6,3.1c-1.8,1.1-3.6,2.2-5.4,3.3c-1,0.6-2,1.3-2.9,2c-2,1.4-3.9,2.9-5.7,4.4
		c-1,0.8-1.9,1.6-2.8,2.4v0c-0.4,0.4-0.8,0.7-1.2,1.1c-0.7,0.6-1.3,1.2-1.9,1.9c-1.3,1.3-2.5,2.7-3.6,4c-0.6,0.7-1.1,1.3-1.6,2
		c0,0-0.1,0.1-0.1,0.1c-5,6.7-6.6,12.6-4.5,16.2c2,3.5,8,5,16.1,4.1c0.9-0.1,1.8-0.2,2.7-0.4c1.7-0.3,3.5-0.7,5.3-1.1
		c0.8-0.2,1.7-0.4,2.6-0.7c0.6-0.2,1.1-0.3,1.7-0.5c2.2,1.2,4.5,2.3,6.7,3.4c-1.9,0.7-3.7,1.4-5.5,1.9c-0.4,0.1-0.8,0.3-1.2,0.4
		c-0.9,0.3-1.7,0.5-2.6,0.7c-1.8,0.5-3.6,0.9-5.3,1.2c-0.9,0.2-1.9,0.3-2.7,0.4c-2.1,0.3-4.1,0.4-6,0.4c-7.8,0-13.7-2.3-16.4-7
		c-3.3-5.7-1.6-13.6,4.9-22.3c0.2-0.2,0.3-0.4,0.5-0.7c0.5-0.7,1.1-1.4,1.7-2.2c-0.6-0.7-1.2-1.4-1.7-2.1c-6.6-8.6-8.9-17-5.5-22.9
		c3.3-5.7,11-8.1,21.8-6.8c0.2,0,0.4,0.1,0.6,0.1c-0.6,1.7-1.1,3.4-1.6,5.2c-1.6-0.2-3.1-0.3-4.5-0.3c-5.8,0-10,1.6-11.7,4.4
		C9.4,31.2,11,37.1,16,43.8c0.5,0.7,1.1,1.4,1.7,2.1c0.6-0.6,1.2-1.3,1.9-1.9c1.6-1.5,3.4-3.1,5.2-4.6c1-0.8,2-1.6,3-2.3
		c1.9-1.5,4-2.9,6.1-4.2c1-0.7,2-1.3,3.1-1.9v0c0.5-0.3,1-0.6,1.5-0.9c0.6-0.3,1.1-0.6,1.7-1h0c1.1-0.6,2.1-1.2,3.2-1.7h0
		c2.2-1.1,4.4-2.2,6.6-3.1c1.1-0.5,2.3-1,3.4-1.4h0c2.3-0.9,4.5-1.7,6.7-2.3C60.7,22.1,61.3,23.8,61.8,25.7z"/>
	<path id="XMLID_8_" d="M93.2,75.1c-2.8,4.7-8.7,7.1-16.5,7.1c-1.9,0-3.9-0.1-6-0.4c-0.9-0.1-1.8-0.3-2.7-0.4
		c-0.3,0.9-0.6,1.7-1,2.6c-4.2,10-10.2,16.1-17,16.1c-6.8,0-12.9-6.1-17-16.1c1.7-0.3,3.5-0.7,5.4-1.2c3.3,7.5,7.6,11.9,11.7,11.9
		c4.1,0,8.4-4.4,11.7-12c0.4-0.8,0.7-1.6,1-2.5c-0.9-0.2-1.7-0.5-2.6-0.7c-2.2-0.6-4.4-1.4-6.6-2.3c-1.1-0.4-2.3-0.9-3.4-1.4h0
		c-2.2-0.9-4.4-2-6.6-3.1c-1.1-0.6-2.1-1.1-3.2-1.7c-0.6-0.3-1.1-0.6-1.7-0.9c-0.5-0.3-1.1-0.6-1.6-0.9c-1.1-0.6-2.1-1.3-3.1-1.9
		c-2.1-1.4-4.1-2.8-6.1-4.2c-1-0.8-2-1.5-3-2.3c-1.9-1.5-3.6-3-5.2-4.6c1.1-1.4,2.3-2.7,3.6-4c0.4,0.4,0.8,0.7,1.2,1.1
		c0.9,0.8,1.8,1.6,2.8,2.5c1.8,1.5,3.7,3,5.7,4.4c0.9,0.7,1.9,1.3,2.9,2c1.7,1.1,3.5,2.2,5.4,3.3c1.9,1.1,3.8,2.1,5.6,3
		c1.1,0.6,2.2,1.1,3.2,1.5c2.3,1.1,4.5,2,6.6,2.8c1.2,0.4,2.3,0.8,3.5,1.2c0.6,0.2,1.1,0.4,1.7,0.5c0.9,0.3,1.7,0.5,2.6,0.7
		c1.9,0.5,3.6,0.9,5.3,1.1c0.9,0.2,1.8,0.3,2.7,0.4c8.2,0.9,14.1-0.6,16.2-4.1c2.1-3.6,0.5-9.5-4.5-16.2c1.3-1.3,2.6-2.7,3.7-4
		c0.2,0.2,0.4,0.4,0.5,0.7C94.8,61.5,96.5,69.4,93.2,75.1z"/>
	<path id="XMLID_27_" d="M56.7,50c0,3.7-3,6.8-6.8,6.8c-3.7,0-6.8-3-6.8-6.8s3-6.8,6.8-6.8C53.7,43.2,56.7,46.3,56.7,50z"/>
	<path id="XMLID_19_" d="M87.7,47.8c-0.5,0.7-1.1,1.4-1.7,2.1c-1.1,1.4-2.4,2.7-3.7,4.1c-0.6,0.6-1.3,1.3-1.9,1.9
		c-1.6,1.6-3.4,3.1-5.2,4.6c0.2-2.4,0.4-4.9,0.4-7.5c0.4-0.4,0.8-0.7,1.2-1.1c0.7-0.6,1.3-1.3,1.9-1.9c1.3-1.4,2.5-2.7,3.6-4
		c0.6-0.7,1.1-1.4,1.7-2.2c3.5-4.8,5.4-9.3,5.4-12.7c0-1.4-0.3-2.5-0.9-3.5c-1.7-2.9-5.8-4.4-11.6-4.4c-1.4,0-2.9,0.1-4.5,0.3
		c-0.1,0-0.2,0-0.4,0c-0.8,0.1-1.5,0.2-2.3,0.4c0.2,0.9,0.5,1.7,0.7,2.6c0.5,2.2,1,4.6,1.4,7c0.2,1.2,0.4,2.5,0.5,3.7
		c0.3,2.4,0.5,4.8,0.6,7.3c0.1,1.2,0.1,2.4,0.1,3.7c0,0.6,0,1.2,0,1.8c0,0.6,0,1.2,0,1.8c0,1.2-0.1,2.5-0.1,3.7
		c-0.1,2.5-0.3,5-0.6,7.4c-0.2,1.3-0.3,2.5-0.5,3.8c-0.4,2.4-0.8,4.7-1.4,7c-1.7-0.3-3.5-0.6-5.3-1.1c0.1-0.6,0.3-1.1,0.4-1.7
		c0.3-1.2,0.5-2.4,0.7-3.7c0.4-2.3,0.7-4.7,0.9-7.2c0.1-1.2,0.2-2.3,0.3-3.5c0.1-2,0.2-4.1,0.2-6.3c0-2.2-0.1-4.3-0.2-6.3
		c-0.1-1.2-0.1-2.4-0.3-3.6c-0.2-2.5-0.5-4.9-0.9-7.1c-0.2-1.3-0.5-2.5-0.7-3.7c-0.1-0.6-0.3-1.2-0.4-1.7c-0.2-0.9-0.4-1.8-0.7-2.6
		c-0.5-1.8-1.1-3.6-1.7-5.1c-0.3-0.9-0.7-1.7-1-2.5C58.3,9.8,54,5.4,50,5.4c-4.1,0-8.4,4.4-11.7,11.9c-0.4,0.8-0.7,1.6-1,2.5
		c-0.6,1.6-1.2,3.3-1.7,5.1c-0.3,0.8-0.5,1.7-0.7,2.6c-0.1,0.6-0.3,1.1-0.4,1.7c-2.2,1.3-4.3,2.7-6.3,4.2c0.4-2.4,0.8-4.8,1.4-7
		c0.2-0.9,0.4-1.8,0.7-2.6c0.5-1.8,1.1-3.6,1.7-5.2c0.3-0.9,0.6-1.7,1-2.5C37.1,6.1,43.2,0,50,0s12.8,6.1,17,16.1
		c0.4,0.8,0.7,1.7,1,2.6c0.9-0.2,1.8-0.3,2.7-0.4c0.2,0,0.4-0.1,0.6-0.1c10.8-1.3,18.5,1.1,21.9,6.7C96.6,30.8,94.3,39.1,87.7,47.8z
		"/>
</g>
</svg>
