<?xml version="1.0" encoding="utf-8"?>
<!-- Generator: Adobe Illustrator 19.0.0, SVG Export Plug-In . SVG Version: 6.00 Build 0)  -->
<svg version="1.1" id="Layer_1" xmlns="http://www.w3.org/2000/svg" xmlns:xlink="http://www.w3.org/1999/xlink" x="0px" y="0px"
	 viewBox="0 0 100 100" style="enable-background:new 0 0 100 100;" xml:space="preserve">
<g id="XMLID_1_">
	<path id="XMLID_2_" d="M47.1,74.3c-3.3-3.3-7.5-7.5-10.8-10.7c-2.7-2.6-2.5-7,0.4-9.4l52.3-44c2.5-2.2,6.3-2,8.6,0.4l0.5,0.5
		c2.3,2.3,2.5,5.9,0.5,8.5l-42,54.2C54.3,76.7,49.8,77,47.1,74.3z"/>
	<path id="XMLID_6_" d="M20,71L20,71c-3.5,7.8-4.3,24.4-20,24.7c7.4,5.8,24.5,5.5,34.4,0.2l0,0c2.2-0.9,5.3-3.7,7.8-6.3
		c2.5-2.5,2.5-6.5,0-9l-6-6l0,0l0,0l0,0l-5.7-5.7C27.3,65.7,21.7,66.7,20,71C20,71,20,71,20,71z"/>
</g>
</svg>
