<?xml version="1.0" encoding="utf-8"?>
<!-- Generator: Adobe Illustrator 19.0.0, SVG Export Plug-In . SVG Version: 6.00 Build 0)  -->
<svg version="1.1" id="Layer_1" xmlns="http://www.w3.org/2000/svg" xmlns:xlink="http://www.w3.org/1999/xlink" x="0px" y="0px"
	 viewBox="-24 26 50 50" style="enable-background:new -24 26 50 50;" xml:space="preserve">
<path id="XMLID_348_" d="M-24,39.5v34.8c0,0.9,0.7,1.6,1.6,1.6h46.7c0.9,0,1.6-0.7,1.6-1.6V39.5c0-0.9-0.7-1.6-1.6-1.6h-46.7
	C-23.3,37.9-24,38.6-24,39.5z M-0.2,45.3v5.5c0,0.9-0.7,1.6-1.6,1.6h-6.5c-0.9,0-1.6-0.7-1.6-1.6v-5.5c0-0.9,0.7-1.6,1.6-1.6h6.5
	C-0.9,43.7-0.2,44.4-0.2,45.3z M3.8,43.7H10c0.9,0,1.6,0.7,1.6,1.6v5.5c0,0.9-0.7,1.6-1.6,1.6H3.8c-0.9,0-1.6-0.7-1.6-1.6l0-5.5
	C2.2,44.4,2.9,43.7,3.8,43.7z M-12.3,45.3v5.5c0,0.9-0.7,1.6-1.6,1.6h-6c-0.9,0-1.6-0.7-1.6-1.6v-5.5c0-0.9,0.7-1.6,1.6-1.6h6
	C-13.1,43.7-12.3,44.4-12.3,45.3z M-20,54.8h6c0.9,0,1.6,0.7,1.6,1.6v5.3c0,0.9-0.7,1.6-1.6,1.6h-6c-0.9,0-1.6-0.7-1.6-1.6v-5.3
	C-21.6,55.5-20.9,54.8-20,54.8z M-8.3,54.8h6.5c0.9,0,1.6,0.7,1.6,1.6v5.3c0,0.9-0.7,1.6-1.6,1.6h-6.5c-0.9,0-1.6-0.7-1.6-1.6v-5.3
	C-9.9,55.5-9.2,54.8-8.3,54.8z M-0.2,67.4V72c0,0.9-0.7,1.6-1.6,1.6h-6.5c-0.9,0-1.6-0.7-1.6-1.6v-4.6c0-0.9,0.7-1.6,1.6-1.6h6.5
	C-0.9,65.8-0.2,66.5-0.2,67.4z M3.8,65.8H10c0.9,0,1.6,0.7,1.6,1.6V72c0,0.9-0.7,1.6-1.6,1.6H3.8c-0.9,0-1.6-0.7-1.6-1.6l0-4.6
	C2.2,66.5,2.9,65.8,3.8,65.8z M2.2,61.8v-5.3c0-0.9,0.7-1.6,1.6-1.6H10c0.9,0,1.6,0.7,1.6,1.6v5.3c0,0.9-0.7,1.6-1.6,1.6H3.8
	C2.9,63.4,2.2,62.6,2.2,61.8z M15.6,54.8H22c0.9,0,1.6,0.7,1.6,1.6v5.3c0,0.9-0.7,1.6-1.6,1.6h-6.4c-0.9,0-1.6-0.7-1.6-1.6v-5.3
	C14,55.5,14.7,54.8,15.6,54.8z M14,50.8v-5.5c0-0.9,0.7-1.6,1.6-1.6H22c0.9,0,1.6,0.7,1.6,1.6v5.5c0,0.9-0.7,1.6-1.6,1.6h-6.4
	C14.7,52.4,14,51.7,14,50.8z M-20,65.8h6c0.9,0,1.6,0.7,1.6,1.6V72c0,0.9-0.7,1.6-1.6,1.6h-6c-0.9,0-1.6-0.7-1.6-1.6v-4.6
	C-21.6,66.5-20.9,65.8-20,65.8z M14,72v-4.6c0-0.9,0.7-1.6,1.6-1.6H22c0.9,0,1.6,0.7,1.6,1.6V72c0,0.9-0.7,1.6-1.6,1.6h-6.4
	C14.7,73.6,14,72.9,14,72z"/>
</svg>
