<?xml version="1.0" encoding="utf-8"?>
<!-- Generator: Adobe Illustrator 19.0.0, SVG Export Plug-In . SVG Version: 6.00 Build 0)  -->
<svg version="1.1" id="Layer_1" xmlns="http://www.w3.org/2000/svg" xmlns:xlink="http://www.w3.org/1999/xlink" x="0px" y="0px"
	 viewBox="0 0 100 100" style="enable-background:new 0 0 100 100;" xml:space="preserve">
<g id="XMLID_1_">
	<path id="XMLID_14_" d="M67.1,40.1H3.2C1.5,40.1,0,42,0,44.2v51.7c0,2.3,1.5,4.1,3.2,4.1h63.9c1.8,0,3.2-1.9,3.2-4.1V44.2
		C70.3,42,68.9,40.1,67.1,40.1z M64.5,91.1c0,0.9-0.7,1.6-1.6,1.6H7.4c-0.9,0-1.6-0.7-1.6-1.6v-5.7c0-0.9,0.7-1.6,1.6-1.6h55.6
		c0.9,0,1.6,0.7,1.6,1.6V91.1z"/>
	<path id="XMLID_12_" d="M100,44.5v50.9c0,3.4-3.4,5.6-6.3,4.1l-15-7.8c-1.5-0.8-2.4-2.3-2.4-4.1V52.3c0-1.7,0.9-3.3,2.4-4.1l15-7.8
		C96.6,39,100,41.2,100,44.5z"/>
</g>
</svg>
