<?xml version="1.0" encoding="utf-8"?>
<!-- Generator: Adobe Illustrator 19.0.0, SVG Export Plug-In . SVG Version: 6.00 Build 0)  -->
<svg version="1.1" id="Layer_1" xmlns="http://www.w3.org/2000/svg" xmlns:xlink="http://www.w3.org/1999/xlink" x="0px" y="0px"
	 viewBox="0 0 100 100" style="enable-background:new 0 0 100 100;" xml:space="preserve">
<path d="M57.6,78.8c-1.5,0.1-2.9,0.2-4.4,0.2c-6.7,0-13.1-1-18.9-2.7c-7.9,4.6-19.6,8.9-34.2,6.9c0,0,13-5.6,19.4-13.9
	C11.3,63.7,6.3,56.1,6.3,47.6c0-5.3,2-10.3,5.5-14.6l0.2,0.2L57.6,78.8z"/>
<path d="M100,47.6c0,7.7-4.1,14.7-11,20.2l-50-50c4.5-1,9.3-1.4,14.2-1.4C79,16.3,100,30.3,100,47.6z"/>
<g id="XMLID_1_">
	<path d="M93.1,93.1c-1,1-2.3,1.5-3.5,1.5c-1.3,0-2.6-0.5-3.5-1.5l-67-67L6.9,14c-2-2-2-5.1,0-7.1C8.9,5,12,5,14,6.9l14.2,14.2
		l52.1,52.1L93.1,86C95,88,95,91.1,93.1,93.1z"/>
	<path d="M93.1,93.1c-1,1-2.3,1.5-3.5,1.5c-1.3,0-2.6-0.5-3.5-1.5l-67-67L6.9,14c-2-2-2-5.1,0-7.1C8.9,5,12,5,14,6.9l14.2,14.2
		l52.1,52.1L93.1,86C95,88,95,91.1,93.1,93.1z"/>
	<path d="M93.1,93.1c-1,1-2.3,1.5-3.5,1.5c-1.3,0-2.6-0.5-3.5-1.5l-67-67L6.9,14c-2-2-2-5.1,0-7.1C8.9,5,12,5,14,6.9l14.2,14.2
		l52.1,52.1L93.1,86C95,88,95,91.1,93.1,93.1z"/>
	<path d="M93.1,93.1c-1,1-2.3,1.5-3.5,1.5c-1.3,0-2.6-0.5-3.5-1.5l-67-67L6.9,14c-2-2-2-5.1,0-7.1C8.9,5,12,5,14,6.9l14.2,14.2
		l52.1,52.1L93.1,86C95,88,95,91.1,93.1,93.1z"/>
</g>
</svg>
