<?xml version="1.0" encoding="utf-8"?>
<!-- Generator: Adobe Illustrator 19.0.0, SVG Export Plug-In . SVG Version: 6.00 Build 0)  -->
<svg version="1.1" id="Layer_1" xmlns="http://www.w3.org/2000/svg" xmlns:xlink="http://www.w3.org/1999/xlink" x="0px" y="0px"
	 viewBox="0 0 100 100" style="enable-background:new 0 0 100 100;" xml:space="preserve">
<path d="M10.5,77c-1.5,0-2.9-0.6-4-1.6l-1.8-1.8c-2.2-2.2-2.2-5.6,0-7.9L46,24.6c1.1-1.1,2.5-1.6,4-1.6c1.5,0,2.9,0.6,4,1.7l41.2,41
	c1.1,1.1,1.8,2.5,1.8,4c0,1.4-0.6,2.7-1.6,3.8l-1.8,1.8c-1.1,1.1-2.5,1.6-4,1.6c-1.5,0-2.9-0.6-4-1.6L50,40L14.5,75.4
	C13.4,76.4,12,77,10.5,77z"/>
</svg>
