<?xml version="1.0" encoding="utf-8"?>
<!-- Generator: Adobe Illustrator 19.0.0, SVG Export Plug-In . SVG Version: 6.00 Build 0)  -->
<svg version="1.1" id="Layer_1" xmlns="http://www.w3.org/2000/svg" xmlns:xlink="http://www.w3.org/1999/xlink" x="0px" y="0px"
	 viewBox="-134 206.2 100 100" style="enable-background:new -134 206.2 100 100;" xml:space="preserve">
<g>
	<path d="M-70.6,268h-13.2v-20.7c0-1.3-0.9-2.2-2.2-2.2h-3.8c-1.3,0-2.2,0.9-2.2,2.2v26.6c0,1.3,0.9,2.2,2.2,2.2h19.1
		c1.3,0,2.2-0.9,2.2-2.2v-3.8C-68.5,268.9-69.5,268-70.6,268z"/>
	<path d="M-84,224.2c-22.6,0-41,18.4-41,41s18.4,41,41,41s41-18.4,41-41S-61.4,224.2-84,224.2z M-84,297.3
		c-17.7,0-32.1-14.4-32.1-32.1s14.4-32.1,32.1-32.1s32.1,14.4,32.1,32.1C-51.9,282.9-66.3,297.3-84,297.3z"/>
</g>
</svg>
