<?xml version="1.0" encoding="utf-8"?>
<!-- Generator: Adobe Illustrator 19.0.0, SVG Export Plug-In . SVG Version: 6.00 Build 0)  -->
<svg version="1.1" id="Layer_1" xmlns="http://www.w3.org/2000/svg" xmlns:xlink="http://www.w3.org/1999/xlink" x="0px" y="0px"
	 viewBox="0 0 100 100" style="enable-background:new 0 0 100 100;" xml:space="preserve">
<g>
	<path d="M63.4,58.8H50.2V38.1c0-1.3-0.9-2.2-2.2-2.2h-3.8c-1.3,0-2.2,0.9-2.2,2.2v26.6c0,1.3,0.9,2.2,2.2,2.2h19.1
		c1.3,0,2.2-0.9,2.2-2.2v-3.8C65.5,59.7,64.5,58.8,63.4,58.8z"/>
	<path d="M50,18C27.4,18,9,36.4,9,59s18.4,41,41,41s41-18.4,41-41S72.6,18,50,18z M50,91.1c-17.7,0-32.1-14.4-32.1-32.1
		c0-17.7,14.4-32.1,32.1-32.1c17.7,0,32.1,14.4,32.1,32.1C82.1,76.7,67.7,91.1,50,91.1z"/>
</g>
</svg>
