<?xml version="1.0" encoding="utf-8"?>
<!-- Generator: Adobe Illustrator 19.0.0, SVG Export Plug-In . SVG Version: 6.00 Build 0)  -->
<svg version="1.1" id="Layer_1" xmlns="http://www.w3.org/2000/svg" xmlns:xlink="http://www.w3.org/1999/xlink" x="0px" y="0px"
	 viewBox="0 0 100 100" style="enable-background:new 0 0 100 100;" xml:space="preserve">
<path id="XMLID_7_" d="M99.6,55.9c0.2-1.9,0.4-3.9,0.4-5.9c0-2-0.1-4-0.4-6l-10.9-3.9c-0.9-3.8-2.5-7.4-4.4-10.7l4.9-10.4
	c-2.5-3.1-5.3-5.9-8.4-8.4l-10.4,5c-3.3-2-6.9-3.5-10.7-4.4L55.9,0.4C53.9,0.1,52,0,50,0c-2,0-4,0.1-6,0.4l-3.9,10.9
	c-3.8,0.9-7.4,2.5-10.7,4.4l-10.4-4.9c-3.1,2.5-5.9,5.3-8.4,8.4l5,10.4c-2,3.3-3.5,6.9-4.4,10.7L0.4,44.1C0.1,46.1,0,48,0,50
	c0,2,0.1,4,0.4,6l10.9,3.9c0.9,3.8,2.5,7.4,4.4,10.7l-4.9,10.4c2.5,3.1,5.3,5.9,8.4,8.4l10.4-5c3.3,2,6.9,3.5,10.7,4.4l3.9,10.9
	c1.9,0.2,3.9,0.4,5.9,0.4c2,0,4-0.1,6-0.4l3.9-10.9c3.8-0.9,7.4-2.5,10.7-4.4l10.4,4.9c3.1-2.5,5.9-5.3,8.4-8.4l-5-10.4
	c2-3.3,3.5-6.9,4.4-10.7L99.6,55.9z M54.8,69.1c-1.6,0.4-3.2,0.6-4.8,0.6c-1.7,0-3.3-0.2-4.8-0.6c-1.9-0.5-3.7-1.2-5.3-2.2
	c-2.8-1.7-5.2-4-6.8-6.8c-1-1.6-1.7-3.4-2.2-5.3c-0.4-1.6-0.6-3.2-0.6-4.8c0-1.7,0.2-3.3,0.6-4.8c0.5-1.9,1.2-3.7,2.2-5.3
	c1.7-2.8,4-5.2,6.8-6.8c1.6-1,3.4-1.7,5.3-2.2c1.6-0.4,3.2-0.6,4.8-0.6c1.7,0,3.3,0.2,4.8,0.6c1.9,0.5,3.7,1.2,5.3,2.2
	c2.8,1.7,5.2,4,6.8,6.8c1,1.6,1.7,3.4,2.2,5.3c0.4,1.6,0.6,3.2,0.6,4.8c0,1.7-0.2,3.3-0.6,4.8c-0.5,1.9-1.2,3.7-2.2,5.3
	c-1.7,2.8-4,5.2-6.8,6.8C58.5,67.9,56.7,68.7,54.8,69.1z"/>
</svg>
