<?xml version="1.0" encoding="utf-8"?>
<!-- Generator: Adobe Illustrator 19.0.0, SVG Export Plug-In . SVG Version: 6.00 Build 0)  -->
<svg version="1.1" id="Layer_1" xmlns="http://www.w3.org/2000/svg" xmlns:xlink="http://www.w3.org/1999/xlink" x="0px" y="0px"
	 viewBox="0 0 100 100" style="enable-background:new 0 0 100 100;" xml:space="preserve">
<g id="XMLID_1_">
	<path id="XMLID_7_" d="M62.8,23.6c0.1-0.8,0.1-1.6,0.1-2.5c0-0.8,0-1.7-0.1-2.5l-4.6-1.6c-0.4-1.6-1-3.1-1.9-4.5L58.4,8
		c-1-1.3-2.2-2.5-3.5-3.5l-4.4,2.1c-1.4-0.8-2.9-1.5-4.5-1.9l-1.6-4.6C43.6,0,42.7,0,41.9,0c-0.8,0-1.7,0-2.5,0.1l-1.6,4.6
		c-1.6,0.4-3.1,1-4.5,1.9l-4.4-2.1c-1.3,1-2.5,2.2-3.5,3.5l2.1,4.4c-0.8,1.4-1.5,2.9-1.9,4.5L21,18.6c-0.1,0.8-0.1,1.6-0.1,2.5
		c0,0.8,0,1.7,0.1,2.5l4.6,1.6c0.4,1.6,1,3.1,1.9,4.5l-2.1,4.4c1,1.3,2.2,2.5,3.5,3.5l4.4-2.1c1.4,0.8,2.9,1.5,4.5,1.9l1.6,4.6
		c0.8,0.1,1.6,0.1,2.5,0.1c0.8,0,1.7,0,2.5-0.1l1.6-4.6c1.6-0.4,3.1-1,4.5-1.9l4.4,2.1c1.3-1,2.5-2.2,3.5-3.5l-2.1-4.4
		c0.8-1.4,1.5-2.9,1.9-4.5L62.8,23.6z M43.9,29.1c-0.7,0.2-1.3,0.3-2,0.3c-0.7,0-1.4-0.1-2-0.2c-0.8-0.2-1.5-0.5-2.2-0.9
		c-1.2-0.7-2.2-1.7-2.9-2.9c-0.4-0.7-0.7-1.4-0.9-2.2c-0.2-0.7-0.3-1.3-0.3-2c0-0.7,0.1-1.4,0.2-2c0.2-0.8,0.5-1.5,0.9-2.2
		c0.7-1.2,1.7-2.2,2.9-2.9c0.7-0.4,1.4-0.7,2.2-0.9c0.7-0.2,1.3-0.3,2-0.3c0.7,0,1.4,0.1,2,0.2c0.8,0.2,1.5,0.5,2.2,0.9
		c1.2,0.7,2.2,1.7,2.9,2.9c0.4,0.7,0.7,1.4,0.9,2.2c0.2,0.7,0.3,1.3,0.3,2c0,0.7-0.1,1.4-0.2,2c-0.2,0.8-0.5,1.5-0.9,2.2
		c-0.7,1.2-1.7,2.2-2.9,2.9C45.5,28.6,44.7,28.9,43.9,29.1z"/>
	<path id="XMLID_8_" d="M64.8,78.1c0.1-1,0.2-1.9,0.2-2.9c0-1-0.1-2-0.2-3l-5.4-1.9c-0.5-1.9-1.2-3.7-2.2-5.3l2.5-5.2
		c-1.2-1.5-2.6-2.9-4.2-4.2l-5.2,2.5c-1.6-1-3.4-1.7-5.3-2.2l-1.9-5.4c-1-0.1-1.9-0.2-2.9-0.2c-1,0-2,0.1-3,0.2L35.3,56
		c-1.9,0.5-3.7,1.2-5.3,2.2l-5.2-2.5c-1.5,1.2-2.9,2.6-4.2,4.2l2.5,5.2c-1,1.6-1.7,3.4-2.2,5.3l-5.4,1.9c-0.1,1-0.2,1.9-0.2,2.9
		c0,1,0.1,2,0.2,3l5.4,1.9c0.5,1.9,1.2,3.7,2.2,5.3l-2.5,5.2c1.2,1.5,2.6,2.9,4.2,4.2l5.2-2.5c1.6,1,3.4,1.7,5.3,2.2l1.9,5.4
		c1,0.1,1.9,0.2,2.9,0.2c1,0,2-0.1,3-0.2l1.9-5.4c1.9-0.5,3.7-1.2,5.3-2.2l5.2,2.5c1.5-1.2,2.9-2.6,4.2-4.2l-2.5-5.2
		c1-1.6,1.7-3.4,2.2-5.3L64.8,78.1z M42.6,84.7C41.8,84.9,41,85,40.2,85c-0.8,0-1.6-0.1-2.4-0.3c-0.9-0.2-1.8-0.6-2.6-1.1
		c-1.4-0.8-2.6-2-3.4-3.4c-0.5-0.8-0.9-1.7-1.1-2.6c-0.2-0.8-0.3-1.6-0.3-2.4c0-0.8,0.1-1.6,0.3-2.4c0.2-0.9,0.6-1.8,1.1-2.6
		c0.8-1.4,2-2.6,3.4-3.4c0.8-0.5,1.7-0.9,2.6-1.1c0.8-0.2,1.6-0.3,2.4-0.3c0.8,0,1.6,0.1,2.4,0.3c0.9,0.2,1.8,0.6,2.6,1.1
		c1.4,0.8,2.6,2,3.4,3.4c0.5,0.8,0.9,1.7,1.1,2.6c0.2,0.8,0.3,1.6,0.3,2.4c0,0.8-0.1,1.6-0.3,2.4c-0.2,0.9-0.6,1.8-1.1,2.6
		c-0.8,1.4-2,2.6-3.4,3.4C44.4,84.1,43.5,84.5,42.6,84.7z"/>
	<path id="XMLID_2_" d="M83.3,53.5c0.3-0.6,0.6-1.2,0.8-1.8c0.2-0.6,0.4-1.3,0.6-1.9l-3-2.5c0.1-1.3,0.1-2.6-0.2-3.9l2.7-2.8
		c-0.4-1.3-1-2.5-1.7-3.6l-3.9,0.4c-0.8-1-1.8-1.9-2.9-2.6l0-3.9c-0.6-0.3-1.2-0.6-1.8-0.8c-0.6-0.2-1.3-0.4-1.9-0.6l-2.5,3
		c-1.3-0.1-2.6-0.1-3.9,0.2l-2.8-2.7c-1.3,0.4-2.5,1-3.6,1.7l0.4,3.9c-1,0.8-1.9,1.8-2.6,2.9l-3.9,0c-0.3,0.6-0.6,1.2-0.8,1.8
		c-0.2,0.6-0.4,1.3-0.6,1.9l3,2.5c-0.1,1.3-0.1,2.6,0.2,3.9l-2.7,2.8c0.4,1.3,1,2.5,1.7,3.6l3.9-0.4c0.8,1,1.8,1.9,2.9,2.6l0,3.9
		c0.6,0.3,1.2,0.6,1.8,0.8c0.6,0.2,1.3,0.4,1.9,0.6l2.5-3c1.3,0.1,2.6,0.1,3.9-0.2l2.8,2.7c1.3-0.4,2.5-1,3.6-1.7l-0.4-3.9
		c1-0.8,1.9-1.8,2.6-2.9L83.3,53.5z M67.5,52.7c-0.5,0-1.1-0.2-1.6-0.4c-0.5-0.2-1-0.4-1.5-0.7c-0.5-0.4-1-0.8-1.4-1.3
		c-0.7-0.8-1.2-1.9-1.4-2.9c-0.1-0.6-0.2-1.3-0.1-1.9c0-0.5,0.2-1.1,0.4-1.6c0.2-0.5,0.4-1,0.7-1.5c0.4-0.5,0.8-1,1.3-1.4
		c0.8-0.7,1.9-1.2,2.9-1.4c0.6-0.1,1.3-0.2,1.9-0.1c0.5,0,1.1,0.2,1.6,0.4c0.5,0.2,1,0.4,1.5,0.7c0.5,0.4,1,0.8,1.4,1.3
		c0.7,0.8,1.2,1.9,1.4,2.9c0.1,0.6,0.2,1.3,0.1,1.9c0,0.5-0.2,1.1-0.4,1.6c-0.2,0.5-0.4,1-0.7,1.5c-0.4,0.5-0.8,1-1.3,1.4
		c-0.8,0.7-1.9,1.2-2.9,1.4C68.8,52.7,68.1,52.8,67.5,52.7z"/>
</g>
</svg>
