<?xml version="1.0" encoding="utf-8"?>
<!-- Generator: Adobe Illustrator 19.0.0, SVG Export Plug-In . SVG Version: 6.00 Build 0)  -->
<svg version="1.1" id="Layer_1" xmlns="http://www.w3.org/2000/svg" xmlns:xlink="http://www.w3.org/1999/xlink" x="0px" y="0px"
	 viewBox="0 0 100 100" style="enable-background:new 0 0 100 100;" xml:space="preserve">
<path d="M57.6,58l22.9-22.9c2-2.1,2-5.4,0-7.6c-1-1-2.4-1.6-3.8-1.6s-2.8,0.6-3.8,1.6L50,50.4L27.1,27.4c-1-1-2.4-1.5-3.8-1.5
	c-1.4,0-2.8,0.5-3.8,1.5c-2.1,2.1-2.1,5.5,0,7.6L42.4,58l-12,12L19.5,80.9c-1,1-1.6,2.4-1.6,3.8c0,1.5,0.6,2.9,1.6,3.8
	c1,1,2.4,1.6,3.8,1.6c1.4,0,2.8-0.6,3.8-1.6l8.6-8.6L50,65.6l22.9,22.9c1,1,2.4,1.6,3.8,1.6c1.5,0,2.9-0.6,3.8-1.6
	c2.1-2.1,2.1-5.4,0.1-7.6L57.6,58z"/>
</svg>
