<?xml version="1.0" encoding="utf-8"?>
<!-- Generator: Adobe Illustrator 19.0.0, SVG Export Plug-In . SVG Version: 6.00 Build 0)  -->
<svg version="1.1" id="Layer_1" xmlns="http://www.w3.org/2000/svg" xmlns:xlink="http://www.w3.org/1999/xlink" x="0px" y="0px"
	 viewBox="0 0 100 100" style="enable-background:new 0 0 100 100;" xml:space="preserve">
<path id="XMLID_5_" d="M93.1,86L80.3,73.2h0L57.1,50l21.8-21.8L93.1,14c1.9-2,1.9-5.1,0-7.1c-2-2-5.1-2-7.1,0L73.8,19.1L50,42.9
	L28.2,21.1L14,6.9C12,5,8.9,5,6.9,6.9c-2,2-2,5.1,0,7.1l12.2,12.2L42.9,50L23.1,69.9L6.9,86c-1,1-1.5,2.3-1.5,3.5
	c0,1.3,0.5,2.6,1.5,3.5c2,2,5.1,2,7.1,0l12.8-12.8v0L50,57.1l19.9,19.9L86,93.1c1,1,2.3,1.5,3.5,1.5c1.3,0,2.6-0.5,3.5-1.5
	C95,91.1,95,88,93.1,86z"/>
</svg>
