<?xml version="1.0" encoding="utf-8"?>
<!-- Generator: Adobe Illustrator 19.0.0, SVG Export Plug-In . SVG Version: 6.00 Build 0)  -->
<svg version="1.1" id="Layer_1" xmlns="http://www.w3.org/2000/svg" xmlns:xlink="http://www.w3.org/1999/xlink" x="0px" y="0px"
	 viewBox="-24 26 50 50" style="enable-background:new -24 26 50 50;" xml:space="preserve">
<g>
	<path id="XMLID_347_" d="M-3.6,47.4c-1.4,0-2.5,1.3-2.5,2.8S-4.9,53-3.6,53c1.4,0,2.6-1.3,2.6-2.8C-1.1,48.6-2.2,47.4-3.6,47.4z
		 M5.5,47.4c-1.4,0-2.5,1.3-2.5,2.8S4.2,53,5.5,53c1.4,0,2.6-1.3,2.6-2.8S6.9,47.4,5.5,47.4z"/>
	<path id="XMLID_344_" d="M17.7,25.9h-33.5c-2.8,0-5.1,2.3-5.1,5.1v33.9c0,2.8,2.3,5.1,5.1,5.1h28.3l-1.3-4.6l3.2,3l3,2.8l5.4,4.8
		V31.1C22.9,28.2,20.6,25.9,17.7,25.9z M8.1,58.5c0,0-0.9-1.1-1.6-2c3.3-0.9,4.5-3,4.5-3c-1,0.7-2,1.1-2.9,1.5
		c-1.3,0.5-2.4,0.9-3.6,1.1c-2.4,0.4-4.6,0.3-6.5,0c-1.4-0.3-2.7-0.7-3.7-1.1c-0.6-0.2-1.2-0.5-1.8-0.9c-0.1,0-0.2-0.1-0.2-0.1
		c-0.1,0-0.1,0-0.1-0.1c-0.5-0.3-0.7-0.4-0.7-0.4s1.2,2,4.4,3c-0.8,0.9-1.7,2.1-1.7,2.1c-5.5-0.2-7.6-3.8-7.6-3.8
		c0-8.1,3.6-14.6,3.6-14.6c3.6-2.7,7-2.6,7-2.6l0.3,0.3c-4.5,1.3-6.6,3.3-6.6,3.3s0.6-0.3,1.5-0.7c2.7-1.2,4.8-1.5,5.7-1.6
		c0.2,0,0.3,0,0.4,0c1.5-0.2,3.3-0.3,5,0c2.4,0.3,4.9,1,7.5,2.4c0,0-2-1.9-6.2-3.2l0.3-0.4c0,0,3.4-0.1,7,2.6c0,0,3.6,6.5,3.6,14.6
		C15.7,54.8,13.6,58.4,8.1,58.5z"/>
</g>
</svg>
