<?xml version="1.0" encoding="utf-8"?>
<!-- Generator: Adobe Illustrator 19.0.0, SVG Export Plug-In . SVG Version: 6.00 Build 0)  -->
<svg version="1.1" id="Layer_1" xmlns="http://www.w3.org/2000/svg" xmlns:xlink="http://www.w3.org/1999/xlink" x="0px" y="0px"
	 viewBox="0 0 100 100" style="enable-background:new 0 0 100 100;" xml:space="preserve">
<path id="XMLID_9_" d="M99.4,63.3C95.1,57.5,79.2,39,50,39S4.9,57.5,0.6,63.3c-0.8,1-0.8,2.4,0,3.5C4.9,72.6,20.8,91,50,91
	s45.1-18.4,49.4-24.3C100.2,65.7,100.2,64.3,99.4,63.3z M10,67c-1.1-1.1-1.1-2.9,0-4c6-6.3,17.6-15.5,35.7-16.8
	c-8.6,1.9-15,9.6-15,18.8s6.4,16.8,15,18.8C27.6,82.5,16,73.3,10,67z M37.8,65c0-6.8,5.5-12.3,12.3-12.3c1.7,0,3.3,0.3,4.8,1
	c-0.6,0.8-0.9,1.8-0.9,2.9c0,2.8,2.3,5.1,5.1,5.1c1,0,1.9-0.3,2.7-0.7c0.5,1.3,0.7,2.7,0.7,4.2c0,6.8-5.5,12.3-12.3,12.3
	C43.3,77.3,37.8,71.8,37.8,65z M90,67c-6,6.3-17.6,15.5-35.7,16.8c8.6-1.9,15-9.6,15-18.8s-6.4-16.8-15-18.8
	C72.4,47.5,84,56.7,90,63C91.1,64.1,91.1,65.9,90,67z"/>
</svg>
