<?xml version="1.0" encoding="utf-8"?>
<!-- Generator: Adobe Illustrator 19.0.0, SVG Export Plug-In . SVG Version: 6.00 Build 0)  -->
<svg version="1.1" id="Layer_1" xmlns="http://www.w3.org/2000/svg" xmlns:xlink="http://www.w3.org/1999/xlink" x="0px" y="0px"
	 viewBox="0 0 100 100" style="enable-background:new 0 0 100 100;" xml:space="preserve">
<path id="XMLID_4_" d="M99.9,88.3L99.9,88.3l-6.2-36.4c-0.8-6.5-6.3-11.6-13-11.6H19.4c-6.7,0-12.3,5.1-13,11.6L0.1,88.3l0,0
	C0,88.8,0,89.3,0,89.9C0,95.5,4.5,100,10.1,100c12.8,0.4,13.4-22.6,17.6-22.7l0,0c1.6,1.6,3.9,2.6,6.4,2.6s4.7-1,6.4-2.6l0,0h19.3
	l0,0c1.6,1.6,3.9,2.6,6.4,2.6s4.7-1,6.4-2.6l0,0c4.1,0.2,4.8,23.2,17.6,22.7c5.6,0,10.1-4.5,10.1-10.1C100,89.3,99.9,88.8,99.9,88.3
	z M78.8,42.8c2.2,0,4,1.8,4,4s-1.8,4-4,4s-4-1.8-4-4S76.6,42.8,78.8,42.8z M25.4,57.2c-0.8,0-1.5,0.7-1.5,1.5v6
	c0,0.8-0.7,1.5-1.5,1.5h-2.2c-0.8,0-1.5-0.7-1.5-1.5v-6c0-0.9-0.7-1.5-1.5-1.5h-6c-0.9,0-1.5-0.7-1.5-1.5v-2.2
	c0-0.8,0.7-1.5,1.5-1.5h6c0.8,0,1.5-0.7,1.5-1.5v-6c0-0.8,0.7-1.5,1.5-1.5h2.2c0.9,0,1.5,0.7,1.5,1.5v6c0,0.9,0.7,1.5,1.5,1.5h6
	c0.8,0,1.5,0.7,1.5,1.5v2.2c0,0.8-0.7,1.5-1.5,1.5H25.4z M33.8,77.2c-3.9,0-7.1-3.2-7.1-7.1c0-3.9,3.2-7.1,7.1-7.1s7.1,3.2,7.1,7.1
	C40.9,74,37.7,77.2,33.8,77.2z M66.2,77.2c-3.9,0-7.1-3.2-7.1-7.1c0-3.9,3.2-7.1,7.1-7.1s7.1,3.2,7.1,7.1
	C73.4,74,70.2,77.2,66.2,77.2z M71.1,58.5c-2.2,0-4-1.8-4-4s1.8-4,4-4s4,1.8,4,4S73.3,58.5,71.1,58.5z M78.8,66.2c-2.2,0-4-1.8-4-4
	c0-2.2,1.8-4,4-4s4,1.8,4,4C82.8,64.4,81,66.2,78.8,66.2z M86.5,58.5c-2.2,0-4-1.8-4-4s1.8-4,4-4s4,1.8,4,4S88.7,58.5,86.5,58.5z"/>
</svg>
