<?xml version="1.0" encoding="utf-8"?>
<!-- Generator: Adobe Illustrator 19.0.0, SVG Export Plug-In . SVG Version: 6.00 Build 0)  -->
<svg version="1.1" id="Layer_1" xmlns="http://www.w3.org/2000/svg" xmlns:xlink="http://www.w3.org/1999/xlink" x="0px" y="0px"
	 viewBox="0 0 100 100" style="enable-background:new 0 0 100 100;" xml:space="preserve">
<g id="XMLID_1_">
	<path id="XMLID_10_" d="M85.9,58.3c0.9-15.1-4.2-27.4-17.3-35.4c-12.7-7.8-25.9-7.5-38.4,0.6c-12.8,8.3-17.4,21.4-16.3,34.9
		c1.2-0.3,2.4-0.6,3.7-0.9c3.5-0.7,6.3,1.3,6.9,4.8c0.9,4.7,1.7,9.4,2.5,14.2c0.9,5.3,1.8,10.5,2.8,15.8c0.8,4.4-1.2,7.2-5.7,7.7
		c-13.5,1.5-24.8-9.2-24-22.8c0.2-3.5,1.3-6.7,3.1-9.8c0.4-0.6,0.6-1.4,0.6-2.1c0.1-4.2-0.1-8.5,0.1-12.7c0.8-17.9,9-31.4,24.7-39.8
		c26.3-14,58.4,0.4,66,29.2c1,3.9,1.5,7.8,1.5,11.8c0,3.8,0,7.6,0,11.4c0,0.5,0.2,1.1,0.5,1.5c8.6,13.4,0.7,30.8-15,33.1
		c-2.2,0.3-4.6,0.1-6.9-0.2c-3-0.4-5-3.3-4.5-6.3c1.3-7.5,2.6-15.1,3.9-22.6c0.5-2.7,1-5.5,1.4-8.2c0.6-3.7,3.4-5.7,7.1-5
		C83.6,57.7,84.7,58,85.9,58.3z"/>
</g>
</svg>
