<?xml version="1.0" encoding="utf-8"?>
<!-- Generator: Adobe Illustrator 19.0.0, SVG Export Plug-In . SVG Version: 6.00 Build 0)  -->
<svg version="1.1" id="Layer_1" xmlns="http://www.w3.org/2000/svg" xmlns:xlink="http://www.w3.org/1999/xlink" x="0px" y="0px"
	 viewBox="0 0 100 100" style="enable-background:new 0 0 100 100;" xml:space="preserve">
<g>
	<path d="M90.2,23H9.8C4.4,23,0,27.4,0,32.8v57.4c0,5.4,4.4,9.8,9.8,9.8h80.4c5.4,0,9.8-4.4,9.8-9.8V32.8C100,27.4,95.6,23,90.2,23z
		 M63.7,71.4l-24-19.3L7.5,78V32.8c0-1.2,1-2.3,2.3-2.3h80.4c1.2,0,2.3,1,2.3,2.3v34.8L80.4,58L63.7,71.4z"/>
	<path d="M62.9,37.5c-4.5,0-8.1,3.7-8.1,8.1s3.7,8.1,8.1,8.1s8.1-3.7,8.1-8.1S67.4,37.5,62.9,37.5z"/>
</g>
</svg>
