<?xml version="1.0" encoding="utf-8"?>
<!-- Generator: Adobe Illustrator 19.0.0, SVG Export Plug-In . SVG Version: 6.00 Build 0)  -->
<svg version="1.1" id="Layer_1" xmlns="http://www.w3.org/2000/svg" xmlns:xlink="http://www.w3.org/1999/xlink" x="0px" y="0px"
	 viewBox="-24 26 50 50" style="enable-background:new -24 26 50 50;" xml:space="preserve">
<path id="XMLID_348_" d="M-2.2,44.5h6.4c1.4,0,2.6,1.2,2.6,2.6v26.3c0,1.4-1.2,2.6-2.6,2.6h-6.4c-1.4,0-2.6-1.2-2.6-2.6V47.1
	C-4.8,45.7-3.6,44.5-2.2,44.5z M-2.2,37.6h6.4c1.4,0,2.6-1.2,2.6-2.6v-6.4c0-1.4-1.2-2.6-2.6-2.6h-6.4c-1.4,0-2.6,1.2-2.6,2.6V35
	C-4.8,36.5-3.6,37.6-2.2,37.6z"/>
</svg>
