<?xml version="1.0" encoding="utf-8"?>
<!-- Generator: Adobe Illustrator 19.0.0, SVG Export Plug-In . SVG Version: 6.00 Build 0)  -->
<svg version="1.1" id="Layer_1" xmlns="http://www.w3.org/2000/svg" xmlns:xlink="http://www.w3.org/1999/xlink" x="0px" y="0px"
	 viewBox="0 0 100 100" style="enable-background:new 0 0 100 100;" xml:space="preserve">
<g id="XMLID_3_">
	<path id="XMLID_2_" d="M95.4,30H4.6C2,30,0,27.8,0,25s2-5,4.6-5h90.8c2.5,0,4.6,2.2,4.6,5S98,30,95.4,30z"/>
</g>
<g id="XMLID_4_">
	<path id="XMLID_5_" d="M95.4,55H4.6C2,55,0,52.8,0,50s2-5,4.6-5h90.8c2.5,0,4.6,2.2,4.6,5S98,55,95.4,55z"/>
</g>
<g id="XMLID_6_">
	<path id="XMLID_7_" d="M95.4,80H4.6C2,80,0,77.8,0,75s2-5,4.6-5h90.8c2.5,0,4.6,2.2,4.6,5S98,80,95.4,80z"/>
</g>
</svg>
