<?xml version="1.0" encoding="utf-8"?>
<!-- Generator: Adobe Illustrator 19.0.0, SVG Export Plug-In . SVG Version: 6.00 Build 0)  -->
<svg version="1.1" id="Layer_1" xmlns="http://www.w3.org/2000/svg" xmlns:xlink="http://www.w3.org/1999/xlink" x="0px" y="0px"
	 viewBox="0 0 100 100" style="enable-background:new 0 0 100 100;" xml:space="preserve">
<g id="XMLID_1_">
	<path id="XMLID_9_" d="M50,61.2L50,61.2c8.4,0,15.3-6.8,15.3-15.3V30.6V15.3C65.3,6.8,58.4,0,50,0h0c-8.4,0-15.3,6.8-15.3,15.3
		v15.3v15.3C34.7,54.3,41.6,61.2,50,61.2z"/>
	<path id="XMLID_11_" d="M76.4,45.9h-0.1c-2.4,0-4.5,1.7-5,4.1c-1.9,10-10.7,17.6-21.3,17.6c-10.6,0-19.4-7.6-21.3-17.6
		c-0.4-2.4-2.5-4.1-5-4.1h-0.1c-3.4,0-5.8,3.1-5.2,6.4c2.6,13,13.1,23.2,26.3,25.3v11.9H34.2c-2.9,0-5.3,2.4-5.3,5.3v0
		c0,2.9,2.4,5.3,5.3,5.3h31.6c2.9,0,5.3-2.4,5.3-5.3v0c0-2.9-2.4-5.3-5.3-5.3H55.3V77.6c13.2-2.2,23.7-12.3,26.3-25.3
		C82.2,49,79.8,45.9,76.4,45.9z"/>
</g>
</svg>
