<?xml version="1.0" encoding="utf-8"?>
<!-- Generator: Adobe Illustrator 19.0.0, SVG Export Plug-In . SVG Version: 6.00 Build 0)  -->
<svg version="1.1" id="Layer_1" xmlns="http://www.w3.org/2000/svg" xmlns:xlink="http://www.w3.org/1999/xlink" x="0px" y="0px"
	 viewBox="0 0 100 100" style="enable-background:new 0 0 100 100;" xml:space="preserve">
<path id="XMLID_4_" d="M13.4,98.9V94c0-0.6,0.5-1.1,1.1-1.1h28.7c0.6,0,1.1-0.5,1.1-1.1V76.4c0-0.6-0.5-1.1-1.1-1.1H1.1
	c-0.6,0-1.1-0.5-1.1-1.1V17c0-0.6,0.5-1.1,1.1-1.1h97.8c0.6,0,1.1,0.5,1.1,1.1v57.2c0,0.6-0.5,1.1-1.1,1.1H58.1
	c-0.6,0-1.1,0.5-1.1,1.1v15.5c0,0.6,0.5,1.1,1.1,1.1h28.7c0.6,0,1.1,0.5,1.1,1.1v4.9c0,0.6-0.5,1.1-1.1,1.1H14.5
	C13.9,100,13.4,99.5,13.4,98.9z M8.1,68.2h83.7c0.6,0,1.1-0.5,1.1-1.1v-43c0-0.6-0.5-1.1-1.1-1.1H8.1c-0.6,0-1.1,0.5-1.1,1.1v43
	C7.1,67.7,7.6,68.2,8.1,68.2z"/>
</svg>
