<?xml version="1.0" encoding="utf-8"?>
<!-- Generator: Adobe Illustrator 19.0.0, SVG Export Plug-In . SVG Version: 6.00 Build 0)  -->
<svg version="1.1"
	 id="svg2" xmlns:rdf="http://www.w3.org/1999/02/22-rdf-syntax-ns#" xmlns:dc="http://purl.org/dc/elements/1.1/" xmlns:cc="http://creativecommons.org/ns#" xmlns:inkscape="http://www.inkscape.org/namespaces/inkscape" xmlns:svg="http://www.w3.org/2000/svg" xmlns:sodipodi="http://sodipodi.sourceforge.net/DTD/sodipodi-0.dtd" sodipodi:docname="6_Silueta_REMIX_PEON_by DG-RA.svg" inkscape:version="0.92.1 r15371"
	 xmlns="http://www.w3.org/2000/svg" xmlns:xlink="http://www.w3.org/1999/xlink" x="0px" y="0px" viewBox="400 0 100 100"
	 style="enable-background:new 400 0 100 100;" xml:space="preserve">
<sodipodi:namedview  id="base" pagecolor="#666666" borderopacity="1.0" showguides="true" showgrid="false" inkscape:cx="138.09365" units="in" inkscape:zoom="0.63773148" bordercolor="#666666" inkscape:cy="275.82141" inkscape:snap-to-guides="true" inkscape:object-nodes="true" inkscape:snap-bbox="true" inkscape:guide-bbox="true" inkscape:window-height="748" inkscape:snap-global="false" inkscape:window-width="1280" inkscape:pageshadow="2" inkscape:window-y="-8" inkscape:pageopacity="0" inkscape:window-maximized="1" inkscape:window-x="-8" inkscape:current-layer="layer1" inkscape:document-units="in">
	</sodipodi:namedview>
<defs>
	
	
		<inkscape:perspective  id="perspective12276" inkscape:vp_y="0 : 1000 : 0" inkscape:vp_x="762.38629 : 484.24038 : 1" inkscape:vp_z="73.032233 : 511.43849 : 1" sodipodi:type="inkscape:persp3d" inkscape:persp3d-origin="419.25598 : 86.174352 : 1">
		</inkscape:perspective>
	
		<inkscape:perspective  id="perspective18995" inkscape:vp_y="0 : 1000 : 0" inkscape:vp_x="5.150616 : 1034.959 : 1" inkscape:vp_z="988.53596 : 1031.9727 : 1" sodipodi:type="inkscape:persp3d" inkscape:persp3d-origin="630.4412 : 246.2095 : 1">
		</inkscape:perspective>
</defs>
<g id="layer1" transform="translate(0,-552.36275)" inkscape:label="Capa 1" inkscape:groupmode="layer">
	<g id="g259" transform="matrix(1.7650513,0,0,1.7650513,-527.72453,-875.21077)">
		<path id="path246" inkscape:connector-curvature="0" d="M540.1,865.4c-1-0.1-1-0.1-1.3-0.3c-0.2-0.3-0.2-0.5-0.2-1.9
			c0-1.7,0-1.6,0.8-2.5c0.2-0.2,0.2-0.5-0.2-1.1c-0.2-0.3-0.3-0.7-0.3-0.8c0-0.5,0.6-1.2,2.8-3.5c3.3-3.3,3.3-3.4,3-4.4
			c-0.2-0.6-0.2-1.3,0.1-1.5c0.1-0.1,0.4-0.3,0.7-0.4c0.3-0.1,0.8-0.5,1-0.7c0.4-0.4,0.5-0.6,0.9-1.9c1.2-3.5,2.2-9.7,2.2-13.3
			c0-1.3,0-1.8-0.1-1.8c-0.1-0.1-0.8-0.2-1.5-0.3c-2.1-0.3-4.1-0.9-4.6-1.4c-0.2-0.2-0.2-0.3,0-0.5c0.3-0.6,2.2-1.6,4.6-2.4
			c0.9-0.3,1.1-0.4,1.1-0.6c0-0.1-0.3-0.5-0.7-0.8c-1.4-1.1-2.6-2.9-3.1-4.4c-0.7-2.2-0.5-4.9,0.5-6.9c1-2,3-3.8,4.9-4.6
			c0.8-0.3,2.6-0.6,3.2-0.6c0.7,0,2.1,0.3,2.9,0.5c2.1,0.7,4,2.3,5.1,4.3c0.5,1,0.8,1.8,1,3.1c0.5,3-0.8,6.5-3.2,8.3
			c-0.3,0.2-0.7,0.6-0.7,0.7c-0.2,0.3-0.2,0.3,0,0.4c0.1,0.1,0.6,0.3,1,0.4c1.1,0.3,3.1,1.2,3.8,1.7c0.7,0.4,0.9,0.8,0.7,1.2
			c-0.2,0.4-2.5,1.2-4.8,1.5c-0.7,0.1-1.3,0.2-1.4,0.3c-0.3,0.2,0,4.6,0.5,7.9c0.4,2.7,1.6,7.4,2,8.3c0.3,0.7,0.7,1,1.3,1.4
			c0.9,0.5,1.1,0.7,1.1,1.2c0,0.3-0.1,0.7-0.2,1c-0.1,0.5-0.1,0.6,0.1,1c0.1,0.3,1.1,1.4,2.8,3.1c1.4,1.4,2.6,2.7,2.7,2.9
			c0.4,0.7,0.3,1.4-0.4,2c-0.4,0.4-0.4,0.5,0.1,0.9c0.3,0.2,0.5,0.4,0.6,0.6c0.1,0.1,0.1,0.9,0.1,1.8c0,1.4,0,1.5-0.3,1.8l-0.3,0.3
			l-13.8,0C547.4,865.5,540.7,865.4,540.1,865.4L540.1,865.4z"/>
	</g>
</g>
</svg>
