<?xml version="1.0" encoding="utf-8"?>
<!-- Generator: Adobe Illustrator 19.0.0, SVG Export Plug-In . SVG Version: 6.00 Build 0)  -->
<svg version="1.1" id="Layer_1" xmlns="http://www.w3.org/2000/svg" xmlns:xlink="http://www.w3.org/1999/xlink" x="0px" y="0px"
	 viewBox="0 0 100 100" style="enable-background:new 0 0 100 100;" xml:space="preserve">
<path id="XMLID_10_" d="M98.5,88L74.5,63.9c-1.6-1.6-1.9-4-0.8-5.9c3.6-6.5,5.3-14.1,4.7-22.1C76.7,17.1,61.6,1.8,42.8,0.2
	C18.4-2-2,18.4,0.2,42.8c1.7,18.8,16.9,34,35.8,35.5c8,0.7,15.6-1.1,22.1-4.7c1.9-1.1,4.4-0.7,5.9,0.8L88,98.5
	c1.9,1.9,5.1,1.9,7.1,0l3.5-3.5C100.5,93.1,100.5,90,98.5,88z M15,41.2c-1.2-15,11.3-27.4,26.2-26.2C53,15.9,62.5,25.5,63.5,37.2
	c1.2,15-11.3,27.4-26.2,26.2C25.5,62.5,15.9,53,15,41.2z"/>
</svg>
