<?xml version="1.0" encoding="utf-8"?>
<!-- Generator: Adobe Illustrator 19.0.0, SVG Export Plug-In . SVG Version: 6.00 Build 0)  -->
<svg version="1.1" id="Layer_1" xmlns="http://www.w3.org/2000/svg" xmlns:xlink="http://www.w3.org/1999/xlink" x="0px" y="0px"
	 viewBox="0 0 100 100" style="enable-background:new 0 0 100 100;" xml:space="preserve">
<style type="text/css">
	.st0{stroke:#000000;stroke-width:3.600000e-002;stroke-miterlimit:10;}
</style>
<path class="st0" d="M50,4.8C22.4,4.8,0,26.1,0,52.4S22.4,100,50,100s50-21.3,50-47.6S77.6,4.8,50,4.8z M60,18l12.3-4.7l13.4,11
	l-3.8,13.8l-12.3,1.8L58.1,28.5L60,18z M31.1,12.4l15.1-3.7l10.4,8.6l-2.8,11l-11.6,5.4l-14.7-3.9l-2.2-9L31.1,12.4z M17.8,20
	c0.7-0.9,1.5-1.8,2.5-2.5c1.1-0.8,2.1-1.5,3.6-2.1c-0.5,1.9-0.9,3.7-1.4,5.6l-6.8,1.7C16.3,21.7,17,20.8,17.8,20z M8.9,72.1
	c-1.1,0.4-2.1-0.7-3.2-3.1c-1.2-2.6-2.8-7.8-3.3-11.7c-0.5-3.9-0.5-7.7,0.2-11.6L9.7,48l3.8,15.8L8.9,72.1z M13.5,46.2L26,33.4
	l13.5,3.8L43,51.9L28.9,62.8l-12.3-0.3L13.5,46.2z M61.5,96.7c-2.8,0.4-5.7,0.7-8.7,0.8c-3.1,0.1-6.5,0-9.5-0.3
	C40,96.7,37,95.8,34.4,95C31.8,94,29.8,93,28,91.8l-0.2-4.6l9.1-6.9l20.3,3.6l5.8,8.9L61.5,96.7z M57.5,81.4l-19.2-4l-6.3-12.6
	l13.7-10.1l15.4,4L66,70.3L57.5,81.4z M69,67.9l-4.4-10L72,43.8l11.6-2.1l6.9,11.6L81,69.1L69,67.9z M92.9,71.6
	c-1.2,2.3-2.2,4-3.4,5l-5.5-6.4l9.6-16.3l3.3-1.8c0,4-0.3,7.3-0.9,10.7C95.2,66.1,94,69.1,92.9,71.6z"/>
</svg>
