<?xml version="1.0" encoding="utf-8"?>
<!-- Generator: Adobe Illustrator 19.0.0, SVG Export Plug-In . SVG Version: 6.00 Build 0)  -->
<svg version="1.1" id="Layer_1" xmlns="http://www.w3.org/2000/svg" xmlns:xlink="http://www.w3.org/1999/xlink" x="0px" y="0px"
	 viewBox="0 0 100 100" style="enable-background:new 0 0 100 100;" xml:space="preserve">
<path id="XMLID_3_" d="M82.9,34c-2.8-3.3-7.9-8.4-16.7-16.5C57.3,9.3,54.9,6.7,50.5,0.4c-0.4-0.6-0.5-0.6-1.4,0.8
	c-2.8,4.5-6.4,8.3-18.5,19.5c-12.7,11.8-17.3,17-20.4,23.5c-2,4.2-2.6,6.4-2.6,10.9c0,3.1,0.1,4.1,0.8,5.7
	c3.7,9.7,14.9,15,25.8,12.5c3-0.7,7.4-3.1,9.7-5.2c1.2-1.1,2.1-1.8,2.1-1.7c0,0.8-1,6.3-1.8,9.7c-2,9-5.7,16.7-9.8,20.3
	c-1.5,1.3-4.6,3-6.6,3.5c-0.7,0.2,6.7,0.3,21.9,0.3c22.3,0,23,0,21.2-0.6c-3.4-1.1-5.5-2.6-8.2-6c-4-5-7.6-15.6-9.1-26.3l-0.2-1.6
	l1.8,1.7c2.3,2.3,3,2.8,5.6,4.1c3.5,1.8,5.9,2.3,10.3,2.3c4.5,0,6.7-0.5,10.5-2.3c3.2-1.6,7.2-5.5,8.7-8.4
	C94.6,54.6,92,44.8,82.9,34z"/>
</svg>
