<?xml version="1.0" encoding="utf-8"?>
<!-- Generator: Adobe Illustrator 19.0.0, SVG Export Plug-In . SVG Version: 6.00 Build 0)  -->
<svg version="1.1" id="Layer_1" xmlns="http://www.w3.org/2000/svg" xmlns:xlink="http://www.w3.org/1999/xlink" x="0px" y="0px"
	 viewBox="-134 206.2 100 100" style="enable-background:new -134 206.2 100 100;" xml:space="preserve">
<path d="M-84,206.2c-27.6,0-50,22.4-50,50c0,27.6,22.4,50,50,50s50-22.4,50-50C-34,228.6-56.4,206.2-84,206.2z M-44.5,256.2
	c0,19.5-14.3,35.8-32.9,38.9v-12.5c4.6-0.8,8.2-2.4,10.6-4.8c2.7-2.7,4-6.1,4-10.4c0-3.8-1.1-6.8-3.4-9.1c-2.2-2.3-6-4.5-11.2-6.5
	v-17c3.1,0.5,6.3,1.4,9.7,2.8l3.1-7.5c-4.3-1.6-8.6-2.6-12.8-3v-9.8C-58.8,220.4-44.5,236.7-44.5,256.2z M-77.4,273.8v-10.2
	c0,0,0.1,0.1,0.1,0.1c1.6,1.3,2.4,3,2.4,4.9C-74.9,270.8-75.8,272.6-77.4,273.8z M-123.5,256.2c0-19.9,14.8-36.5,34.1-39.1v10.1
	c-5.2,0.7-9.3,2.1-11.9,4.5c-2.6,2.3-3.8,5.4-3.8,9.6c0,2.8,0.4,5.2,1.3,7c0.9,1.8,2.3,3.4,4.3,4.9c2.2,1.6,5.1,3.1,8.7,4.4
	c0.5,0.2,0.9,0.3,1.4,0.5v17.4c-2.4-0.3-5.1-0.8-7.9-1.7c-2.7-0.8-5.3-1.7-7.8-2.7v8.6c5,2,10.3,3.2,15.7,3.4v12.3
	C-108.7,292.7-123.5,276.2-123.5,256.2z M-89.4,235.2v11.5c-0.7-0.4-1.2-0.8-1.7-1.2c-1.3-1.2-2.1-2.9-2.1-4.7
	c0-2.2,1.1-4.1,2.9-5.2C-90,235.5-89.7,235.3-89.4,235.2z"/>
</svg>
