<?xml version="1.0" encoding="utf-8"?>
<!-- Generator: Adobe Illustrator 19.0.0, SVG Export Plug-In . SVG Version: 6.00 Build 0)  -->
<svg version="1.1" id="Layer_1" xmlns="http://www.w3.org/2000/svg" xmlns:xlink="http://www.w3.org/1999/xlink" x="0px" y="0px"
	 viewBox="0 0 100 100" style="enable-background:new 0 0 100 100;" xml:space="preserve">
<path id="XMLID_13_" d="M50,0C22.4,0,0,22.4,0,50s22.4,50,50,50s50-22.4,50-50S77.6,0,50,0z M53.4,55.4c1.4,0.7,2.5,1.4,3.3,2
	c1.6,1.3,2.4,3,2.4,4.9c0,2.6-1.2,4.6-3.4,5.8c-0.7,0.3-1.4,0.6-2.3,0.8V55.4z M46.6,41.6c-1.7-0.8-2.9-1.6-3.7-2.3
	c-1.3-1.2-2.1-2.9-2.1-4.7c0-2.2,1.1-4.1,2.9-5.2c0.8-0.5,1.7-0.8,2.8-1V41.6z M9.1,50c0-21.4,16.6-39,37.5-40.8v11.5l-0.9,0.1
	c-5.8,0.6-10.2,2.1-13,4.6c-2.6,2.3-3.8,5.4-3.8,9.6c0,2.8,0.4,5.2,1.3,7c0.9,1.8,2.3,3.4,4.3,4.9c2.2,1.6,5.1,3.1,8.7,4.4
	c1.2,0.4,2.4,0.9,3.4,1.3v16.8c-3-0.2-6.3-0.8-9.9-1.9c-2.7-0.8-5.3-1.7-7.8-2.7v8.6c5.3,2.1,10.9,3.3,16.6,3.5l1.1,0v13.8
	C25.6,89,9.1,71.4,9.1,50z M53.4,90.8v-14l1.2-0.1c5.6-0.7,9.8-2.4,12.6-5.1c2.7-2.7,4-6.1,4-10.4c0-3.8-1.1-6.8-3.4-9.1
	c-2.4-2.5-6.7-4.9-12.6-7c-0.6-0.2-1.2-0.4-1.8-0.6V28.2c4,0.4,8.3,1.4,12.9,3.2l3.1-7.5c-4.9-1.8-9.8-2.9-14.7-3.2l-1.4-0.1V9.2
	C74.4,11,90.9,28.6,90.9,50C90.9,71.4,74.4,89,53.4,90.8z"/>
</svg>
