<?xml version="1.0" encoding="utf-8"?>
<!-- Generator: Adobe Illustrator 19.0.0, SVG Export Plug-In . SVG Version: 6.00 Build 0)  -->
<svg version="1.1" id="Layer_1" xmlns="http://www.w3.org/2000/svg" xmlns:xlink="http://www.w3.org/1999/xlink" x="0px" y="0px"
	 viewBox="0 0 100 100" style="enable-background:new 0 0 100 100;" xml:space="preserve">
<g>
	<path d="M97.9,2.1C96.6,0.7,94.9,0,93,0H60.3c-1.9,0-3.6,0.7-4.9,2.1L2.1,55.4C0.7,56.7,0,58.5,0,60.3s0.7,3.6,2.1,4.9l32.7,32.7
		c1.3,1.3,3.1,2.1,4.9,2.1s3.6-0.7,4.9-2.1l53.3-53.3c1.3-1.3,2.1-3,2.1-4.9V7C100,5.1,99.3,3.4,97.9,2.1z M60.3,6.3H93
		c0.2,0,0.3,0.1,0.5,0.2c0.1,0.1,0.2,0.3,0.2,0.5v32.5c0,0.2-0.1,0.3-0.2,0.5L40.1,93.4c-0.1,0.1-0.3,0.2-0.4,0.2
		c-0.2,0-0.3-0.1-0.4-0.2L6.5,60.7c-0.1-0.1-0.2-0.3-0.2-0.4c0-0.2,0.1-0.3,0.2-0.4L59.8,6.5C59.9,6.4,60.2,6.3,60.3,6.3z"/>
	<path d="M77.9,31.9c2.6,0,5.1-1,7-2.9c3.8-3.8,3.8-10.1,0-13.9c-1.8-1.8-4.3-2.9-7-2.9s-5.1,1-7,2.9c-3.8,3.8-3.8,10.1,0,13.9
		C72.8,30.9,75.3,31.9,77.9,31.9z M75.4,19.5c0.7-0.7,1.6-1,2.5-1s1.9,0.4,2.5,1c0.7,0.7,1,1.6,1,2.5c0,1-0.4,1.9-1,2.5
		c-0.7,0.7-1.6,1-2.5,1s-1.9-0.4-2.5-1c-0.7-0.7-1-1.6-1-2.5C74.4,21.1,74.7,20.2,75.4,19.5z"/>
	<path d="M38.3,83.1L38.3,83.1c0.5,0.4,1,0.6,1.5,0.6c0.6,0,1.1-0.2,1.4-0.6l2.3-2.2l0-0.1c0.7-0.9,0.7-2.1-0.1-2.9L22.2,56.7
		l-0.1-0.1c-0.4-0.3-0.9-0.5-1.4-0.5c-0.6,0-1.1,0.2-1.4,0.6L17,58.9L16.9,59c-0.7,0.9-0.7,2.1,0.1,2.9L38.3,83.1z"/>
	<path d="M46,75.6L46,75.6c0.5,0.4,1,0.6,1.5,0.6c0.6,0,1.1-0.2,1.4-0.6l2.3-2.3l0.1-0.1c0.7-0.9,0.7-2.1-0.1-2.9L29.8,49l-0.1-0.1
		c-0.4-0.3-0.9-0.5-1.4-0.5c-0.6,0-1.1,0.2-1.4,0.6l-2.3,2.3l-0.1,0.1c-0.7,0.9-0.7,2.1,0.1,2.9L46,75.6z"/>
	<path d="M53.5,67.9L53.5,67.9c0.5,0.4,1,0.6,1.5,0.6c0.6,0,1.1-0.2,1.4-0.6l2.4-2.3l0-0.1c0.7-0.9,0.7-2.1-0.1-2.9L37.5,41.4
		l-0.1-0.1c-0.4-0.3-0.9-0.5-1.4-0.5c-0.6,0-1.1,0.2-1.4,0.6l-2.3,2.3l0,0c-0.7,0.9-0.7,2.1,0.1,2.9L53.5,67.9z"/>
	<path d="M61.2,60.3L61.2,60.3c0.5,0.4,1,0.6,1.5,0.6c0.6,0,1.1-0.2,1.4-0.6l2.3-2.3l0.1-0.1c0.7-0.9,0.7-2.1-0.1-2.9L45.1,33.7l0,0
		c-0.4-0.3-0.9-0.5-1.4-0.5c-0.6,0-1.1,0.2-1.4,0.6L39.9,36l-0.1,0.1c-0.7,0.9-0.7,2.1,0.1,2.9L61.2,60.3z"/>
</g>
</svg>
