<?xml version="1.0" encoding="utf-8"?>
<!-- Generator: Adobe Illustrator 19.0.0, SVG Export Plug-In . SVG Version: 6.00 Build 0)  -->
<svg version="1.1" id="Layer_1" xmlns="http://www.w3.org/2000/svg" xmlns:xlink="http://www.w3.org/1999/xlink" x="0px" y="0px"
	 viewBox="0 0 100 100" style="enable-background:new 0 0 100 100;" xml:space="preserve">
<path id="XMLID_10_" d="M97.8,84.8v-7c0-0.3-0.2-0.5-0.5-0.6l-17.9-2.6c-0.2,0-0.4-0.2-0.4-0.4l-0.9-5.4c0-0.2,0.1-0.3,0.2-0.4
	l1.3-0.5c0.2-0.1,0.3-0.3,0.2-0.5l-1.6-2.8c-0.1-0.1-0.2-0.2-0.3-0.2H77c-0.1,0-0.2,0-0.3-0.1c-1.1-1.4-10.9-12.8-35.4-16.3
	c-1.6-0.2-3,1-3,2.6v39.8c0,0.4-0.3,0.7-0.7,0.7h-8.3c-1-1.4-2.6-2.3-4.5-2.3s-3.5,0.9-4.5,2.3h-4.1c-1-1.4-2.6-2.3-4.5-2.3
	s-3.5,0.9-4.5,2.3H0.5c-0.3,0-0.6,0.3-0.5,0.6L0.8,96c0,0.2,0.3,0.4,0.5,0.4h5.1c0.8,2.1,2.8,3.6,5.2,3.6c2.4,0,4.4-1.5,5.2-3.6h2.6
	c0.8,2.1,2.8,3.6,5.2,3.6s4.4-1.5,5.2-3.6h52.7c0.8,2.1,2.8,3.6,5.2,3.6c2.4,0,4.4-1.5,5.2-3.6h2.8c0.2,0,0.4-0.1,0.5-0.3l0.5-0.9
	c0-0.1,0.1-0.1,0.2-0.2l2.7-1.9c0.1-0.1,0.2-0.3,0.2-0.5v-5.5c0-0.2-0.1-0.3-0.2-0.4L98,85.3C97.9,85.2,97.8,85,97.8,84.8z
	 M69.5,73.6v-4c0-0.3,0.2-0.5,0.5-0.5h5.5c0.2,0,0.4,0.1,0.5,0.4c0.2,0.9,0.9,3,1.2,4c0.1,0.3-0.1,0.6-0.5,0.6H70
	C69.7,74.1,69.5,73.8,69.5,73.6z"/>
</svg>
