<?xml version="1.0" encoding="utf-8"?>
<!-- Generator: Adobe Illustrator 19.0.0, SVG Export Plug-In . SVG Version: 6.00 Build 0)  -->
<svg version="1.1" id="Layer_1" xmlns="http://www.w3.org/2000/svg" xmlns:xlink="http://www.w3.org/1999/xlink" x="0px" y="0px"
	 viewBox="0 0 100 100" style="enable-background:new 0 0 100 100;" xml:space="preserve">
<image style="display:none;overflow:visible;opacity:0.48;" width="800" height="700" id="XMLID_1_" xlink:href="AEF981AE.jpg"  transform="matrix(0.2429 0 0 0.2429 -47.1429 -35)">
</image>
<path id="XMLID_6_" d="M98.4,66.7l0.4-5.7l-1.1-2.2l-4-20l-7-1c0,0-9.6-6.5-27.5-7.7c0,0-1.2,1.7-1.9,6.9l-5.7,1.9
	c0,0-3.4,27-2.4,37.8h-45L0,78.3l2.5,11.4l6.4,0.1V90c0,5,4.1,9.1,9.1,9.1c5,0,9-4,9.1-8.9l15.9,0.3v1.4l19.5,0.4l0.5-1.5l0,0
	l7.8,0.1h1.2c0,5,4.1,9.1,9.1,9.1s9.1-4.1,9.1-9.1h6c0,0,2,0,2-2.9c0-2.9,0-11.2,0-11.2L100,75v-7.1L98.4,66.7z M82.1,58.9
	c-1.1,0-2-0.9-2-2v-8.5c0-1.1,0.9-2,2-2h11.7l1.7,12.4H82.1z"/>
</svg>
