<?xml version="1.0" encoding="utf-8"?>
<!-- Generator: Adobe Illustrator 19.0.0, SVG Export Plug-In . SVG Version: 6.00 Build 0)  -->
<svg version="1.1" id="Layer_1" xmlns="http://www.w3.org/2000/svg" xmlns:xlink="http://www.w3.org/1999/xlink" x="0px" y="0px"
	 viewBox="0 0 100 100" style="enable-background:new 0 0 100 100;" xml:space="preserve">
<path id="XMLID_14_" d="M98.2,36.7h-40c-1.8,0-2.5-2.3-1-3.3l4.8-3.1c0.8-0.5,1.1-1.6,0.6-2.5l-1.3-2c-0.5-0.8-1.6-1.1-2.5-0.6
	l-16,10.1c-0.6,0.4-1.4,0.4-2-0.1l-31-23.2c-0.8-0.6-1.9-0.4-2.5,0.4l-1.4,1.9c-0.6,0.8-0.4,1.9,0.4,2.5l22.1,16.5
	c1.4,1,0.6,3.2-1.1,3.2H1.8c-1,0-1.8,0.8-1.8,1.8v56c0,1,0.8,1.8,1.8,1.8h15c1,0,1.8,0.8,1.8,1.8v0.2c0,1,0.8,1.8,1.8,1.8h59.3
	c1,0,1.8-0.8,1.8-1.8V98c0-1,0.8-1.8,1.8-1.8h15c1,0,1.8-0.8,1.8-1.8v-56C100,37.5,99.2,36.7,98.2,36.7z M10.7,45.7h61.9
	c1,0,1.8,0.8,1.8,1.8v38.1c0,1-0.8,1.8-1.8,1.8H10.7c-1,0-1.8-0.8-1.8-1.8V47.4C8.9,46.5,9.7,45.7,10.7,45.7z M94,87.3H82.1
	c-1,0-1.8-0.8-1.8-1.8v0c0-1,0.8-1.8,1.8-1.8H94c1,0,1.8,0.8,1.8,1.8v0C95.8,86.5,95,87.3,94,87.3z M94,79.7H82.1
	c-1,0-1.8-0.8-1.8-1.8l0,0c0-1,0.8-1.8,1.8-1.8H94c1,0,1.8,0.8,1.8,1.8l0,0C95.8,78.9,95,79.7,94,79.7z M94,72.1H82.1
	c-1,0-1.8-0.8-1.8-1.8v0c0-1,0.8-1.8,1.8-1.8H94c1,0,1.8,0.8,1.8,1.8v0C95.8,71.3,95,72.1,94,72.1z M94,64.5H82.1
	c-1,0-1.8-0.8-1.8-1.8v0c0-1,0.8-1.8,1.8-1.8H94c1,0,1.8,0.8,1.8,1.8v0C95.8,63.7,95,64.5,94,64.5z M94,56.9H82.1
	c-1,0-1.8-0.8-1.8-1.8v0c0-1,0.8-1.8,1.8-1.8H94c1,0,1.8,0.8,1.8,1.8v0C95.8,56.1,95,56.9,94,56.9z M94,49.2H82.1
	c-1,0-1.8-0.8-1.8-1.8v0c0-1,0.8-1.8,1.8-1.8H94c1,0,1.8,0.8,1.8,1.8v0C95.8,48.4,95,49.2,94,49.2z"/>
</svg>
