<?xml version="1.0" encoding="utf-8"?>
<!-- Generator: Adobe Illustrator 19.0.0, SVG Export Plug-In . SVG Version: 6.00 Build 0)  -->
<svg version="1.1" id="Layer_1" xmlns="http://www.w3.org/2000/svg" xmlns:xlink="http://www.w3.org/1999/xlink" x="0px" y="0px"
	 viewBox="0 0 100 100" style="enable-background:new 0 0 100 100;" xml:space="preserve">
<g id="XMLID_4_">
	<rect id="XMLID_5_" y="42.7" width="100" height="7.3"/>
	<path id="XMLID_18_" d="M80.9,54.5H70.5H60H40H29.5H19.1H4.5H0V100h4.5h14.6h10.4H40H60h10.4h10.4h14.6h4.5V54.5h-4.5H80.9z
		 M37.5,83.3V71.2v-3.9h6.4h3.6h4.9h3.6h6.4v3.9v12.1v3.9h-6.4h-3.6h-4.9h-3.6h-6.4V83.3z M29.5,67.3v20c-5.5,0-10-4.5-10-10
		C19.5,71.8,24,67.3,29.5,67.3z M70.5,87.3v-20c5.5,0,10,4.5,10,10C80.5,82.8,76,87.3,70.5,87.3z M4.5,77.3c0-4.1,1-7.9,2.7-11.4h9
		c-2.6,3.1-4.2,7-4.2,11.4c0,4.4,1.6,8.3,4.2,11.4h-9C5.5,85.2,4.5,81.4,4.5,77.3z M92.7,88.6h-9c2.6-3.1,4.2-7,4.2-11.4
		c0-4.3-1.6-8.3-4.2-11.4h9c1.8,3.4,2.7,7.3,2.7,11.4C95.5,81.4,94.5,85.2,92.7,88.6z"/>
</g>
</svg>
