<?xml version="1.0" encoding="utf-8"?>
<!-- Generator: Adobe Illustrator 19.0.0, SVG Export Plug-In . SVG Version: 6.00 Build 0)  -->
<svg version="1.1" id="Layer_1" xmlns="http://www.w3.org/2000/svg" xmlns:xlink="http://www.w3.org/1999/xlink" x="0px" y="0px"
	 viewBox="0 0 100 100" style="enable-background:new 0 0 100 100;" xml:space="preserve">
<path d="M93.8,2H6.3C2.8,2,0,4.8,0,8.3v83.5C0,95.2,2.8,98,6.3,98h87.5c3.5,0,6.3-2.8,6.3-6.3V8.3C100,4.8,97.2,2,93.8,2z M55,9
	c0-2.2,1.8-4,4-4h7c2.2,0,4,1.8,4,4v7c0,2.2-1.8,4-4,4h-7c-2.2,0-4-1.8-4-4V9z M30,9c0-2.2,1.8-4,4-4h7c2.2,0,4,1.8,4,4v7
	c0,2.2-1.8,4-4,4h-7c-2.2,0-4-1.8-4-4V9z M5,9c0-2.2,1.8-4,4-4h7c2.2,0,4,1.8,4,4v7c0,2.2-1.8,4-4,4H9c-2.2,0-4-1.8-4-4V9z M20,91
	c0,2.2-1.8,4-4,4H9c-2.2,0-4-1.8-4-4v-7c0-2.2,1.8-4,4-4h7c2.2,0,4,1.8,4,4V91z M45,91c0,2.2-1.8,4-4,4h-7c-2.2,0-4-1.8-4-4v-7
	c0-2.2,1.8-4,4-4h7c2.2,0,4,1.8,4,4V91z M70,91c0,2.2-1.8,4-4,4h-7c-2.2,0-4-1.8-4-4v-7c0-2.2,1.8-4,4-4h7c2.2,0,4,1.8,4,4V91z
	 M95,91c0,2.2-1.8,4-4,4h-7c-2.2,0-4-1.8-4-4v-7c0-2.2,1.8-4,4-4h7c2.2,0,4,1.8,4,4V91z M95,72.3c0,2.6-2.1,4.8-4.8,4.8H9.8
	C7.1,77,5,74.9,5,72.3V27.8C5,25.1,7.1,23,9.8,23h80.5c2.6,0,4.8,2.1,4.8,4.8V72.3z M95,16c0,2.2-1.8,4-4,4h-7c-2.2,0-4-1.8-4-4V9
	c0-2.2,1.8-4,4-4h7c2.2,0,4,1.8,4,4V16z"/>
<path d="M63.6,52.2l-25,12.5C37,65.6,35,64.4,35,62.5v-25c0-1.9,2-3.1,3.6-2.2l25,12.5C65.5,48.7,65.5,51.3,63.6,52.2z"/>
</svg>
