<?xml version="1.0" encoding="utf-8"?>
<!-- Generator: Adobe Illustrator 19.0.0, SVG Export Plug-In . SVG Version: 6.00 Build 0)  -->
<svg version="1.1" id="Layer_1" xmlns="http://www.w3.org/2000/svg" xmlns:xlink="http://www.w3.org/1999/xlink" x="0px" y="0px"
	 viewBox="-134 206.2 100 100" style="enable-background:new -134 206.2 100 100;" xml:space="preserve">
<path d="M-40.2,208.2h-87.5c-3.5,0-6.3,2.8-6.3,6.3V298c0,3.4,2.8,6.2,6.3,6.2h87.5c3.5,0,6.3-2.8,6.3-6.3v-83.4
	C-34,211-36.8,208.2-40.2,208.2z M-79,215.2c0-2.2,1.8-4,4-4h7c2.2,0,4,1.8,4,4v7c0,2.2-1.8,4-4,4h-7c-2.2,0-4-1.8-4-4V215.2z
	 M-104,215.2c0-2.2,1.8-4,4-4h7c2.2,0,4,1.8,4,4v7c0,2.2-1.8,4-4,4h-7c-2.2,0-4-1.8-4-4V215.2z M-129,215.2c0-2.2,1.8-4,4-4h7
	c2.2,0,4,1.8,4,4v7c0,2.2-1.8,4-4,4h-7c-2.2,0-4-1.8-4-4V215.2z M-114,297.2c0,2.2-1.8,4-4,4h-7c-2.2,0-4-1.8-4-4v-7
	c0-2.2,1.8-4,4-4h7c2.2,0,4,1.8,4,4V297.2z M-89,297.2c0,2.2-1.8,4-4,4h-7c-2.2,0-4-1.8-4-4v-7c0-2.2,1.8-4,4-4h7c2.2,0,4,1.8,4,4
	V297.2z M-64,297.2c0,2.2-1.8,4-4,4h-7c-2.2,0-4-1.8-4-4v-7c0-2.2,1.8-4,4-4h7c2.2,0,4,1.8,4,4V297.2z M-39,297.2c0,2.2-1.8,4-4,4
	h-7c-2.2,0-4-1.8-4-4v-7c0-2.2,1.8-4,4-4h7c2.2,0,4,1.8,4,4V297.2z M-39,278.5c0,2.6-2.1,4.8-4.8,4.8h-80.4
	c-2.7-0.1-4.8-2.2-4.8-4.8V234c0-2.7,2.1-4.8,4.8-4.8h80.5c2.6,0,4.8,2.1,4.8,4.8v44.5H-39z M-39,222.2c0,2.2-1.8,4-4,4h-7
	c-2.2,0-4-1.8-4-4v-7c0-2.2,1.8-4,4-4h7c2.2,0,4,1.8,4,4V222.2z"/>
<path d="M-70.4,258.4l-25,12.5c-1.6,0.9-3.6-0.3-3.6-2.2v-25c0-1.9,2-3.1,3.6-2.2l25,12.5C-68.5,254.9-68.5,257.5-70.4,258.4z"/>
</svg>
