<?xml version="1.0" standalone="no"?>
<!DOCTYPE svg PUBLIC "-//W3C//DTD SVG 20010904//EN"
 "http://www.w3.org/TR/2001/REC-SVG-20010904/DTD/svg10.dtd">
<svg version="1.0" xmlns="http://www.w3.org/2000/svg"
 width="700.000000pt" height="700.000000pt" viewBox="0 0 700.000000 700.000000"
 preserveAspectRatio="xMidYMid meet">
<metadata>
Created by potrace 1.11, written by Peter Selinger 2001-2013
</metadata>
<g transform="translate(0.000000,700.000000) scale(0.100000,-0.100000)"
fill="#000000" stroke="none">
<path d="M43 5877 c-11 -5 -26 -19 -32 -31 -8 -15 -11 -552 -9 -2049 l3 -2029
24 -19 c23 -19 61 -19 1521 -19 l1497 0 27 -25 26 -24 0 -565 0 -565 -23 -27
-23 -27 -1015 1 c-645 0 -1026 -3 -1047 -10 -17 -5 -37 -19 -43 -29 -6 -13
-10 -94 -10 -212 1 -170 3 -195 20 -217 l18 -25 2567 -3 c2555 -2 2566 -2
2586 18 22 22 22 18 22 254 0 159 -1 169 -21 190 l-22 21 -1040 5 -1041 5 -19
24 c-18 22 -19 47 -19 582 0 388 3 565 11 582 6 14 22 30 36 36 17 8 431 11
1467 11 1407 0 1444 0 1467 19 l24 19 3 2024 c2 1458 -1 2030 -9 2050 -6 15
-18 30 -27 34 -25 12 -6894 13 -6919 1z m6432 -512 c14 -13 25 -34 26 -47 0
-13 1 -699 1 -1526 1 -1601 3 -1542 -46 -1559 -29 -9 -5869 -10 -5906 0 -64
16 -60 -87 -60 1585 l0 1519 24 26 25 27 2956 0 2956 0 24 -25z"/>
</g>
</svg>
