<?xml version="1.0" encoding="utf-8"?>
<!-- Generator: Adobe Illustrator 19.0.0, SVG Export Plug-In . SVG Version: 6.00 Build 0)  -->
<svg version="1.1" id="Layer_1" xmlns="http://www.w3.org/2000/svg" xmlns:xlink="http://www.w3.org/1999/xlink" x="0px" y="0px"
	 viewBox="0 0 100 100" style="enable-background:new 0 0 100 100;" xml:space="preserve">
<path id="XMLID_29_" d="M45.3,0c2.4,1.2,4.9,2.2,5.3,5.4c0.2,1.9,0.4,3.6-1.5,4.7c-1,0.5-1.3,1.4-0.5,2.1c0.4,0.4,1.4,0.4,2,0.1
	c1-0.5,1.8-1.2,2.2-1.5c2.1,0.5,3.9,1.2,5.6,1.3c5.9,0.2,11.8,0.1,18,0.1c0.2-0.6,0.4-1.5,0.7-2.5c0.4,0.2,0.7,0.2,0.8,0.4
	c2.3,4.7,2.3,4.7,7.2,4c1.4-0.2,3.4-0.6,3.6,1c0.2,2-2.1,1.5-3.2,1.4c-3.6-0.4-7,0.1-10.5,1c-1.7,0.5-3.6,0.1-5.4,0.2
	c-4,0.1-4.9,1.1-5.1,5c-0.2,4-1.7,7.6-4.8,10.3c-1.5,1.4-3.1,1.6-4.9,0.7c-2.2-1.1-4.3-2.2-6.9-3.5c0.1,0.9,0,1.7,0.3,2
	c1.3,1.2,2.1,2.6,1.8,4.4c-0.4,2.8-1,5.5-1.6,8.2c-0.1,0.5-0.9,1.1-1.4,1.1c-2.4-0.2-1.7,1.5-1.5,2.5c0.2,0.8,1,1.5,1.4,2.2
	c1.7,3,3.4,6,5,9c1,1.8,1.9,3.6,2.7,5.5c0.5,1.4,1.1,3,0.9,4.4c-0.6,5.7-0.3,11.4-1.4,17.1c-0.6,2.9,1.4,6.1,4.2,7.6
	c0.4,0.2,1,0.3,1.4,0.5c1.2,0.5,2.2,1.3,1.7,2.6c-0.3,0.7-1.6,1.2-2.5,1.3c-1.4,0.2-2.8,0-4.2-0.2c-1.8-0.2-3.5-0.5-5.3-0.6
	c-2.9-0.2-3.3-0.6-2.9-3.5c0.3-2.1,0.7-4.3,0.8-6.4c0.1-1.2-0.4-2.5-0.7-3.7c-0.9-4-1.9-7.9-0.6-12c0.8-2.4,0.5-2.5-1.8-3.6
	c-1.1-0.5-2.2-1.3-2.9-2.3c-2.1-3.1-3.9-6.3-8-7.9c-0.9,2.3-2.3,4.7-2.8,7.2c-0.5,2.8-1.9,4.9-3.6,7c-1.2,1.5-1.6,3-1.9,4.9
	c-0.5,3-1.5,5.9-2.4,8.9c-0.1,0.4-0.5,0.9-0.9,1.2c-3.7,1.9-3.5,5.3-3.1,8.6c0.2,1.4,0.8,2.7-0.5,3.9c-2.1,0-4.1,0-6.2,0
	c-1.1-1.6-0.9-3.3-0.6-5.1c0.7-3.3,2.7-6.4,1.4-10c-0.1-0.2,0-0.5,0.1-0.7c1.6-4,3.1-8,5-11.9c1-2,1.9-3.8,1.7-6.1
	c-0.1-1.4,0.3-2.8,0.5-4.2c0.2-2,1.3-4-0.4-6.1c-0.6-0.7-0.4-2.7,0.2-3.7c1.6-2.8,1.2-5.7,1.1-8.6c-0.1-1.7-0.3-3.4,2.6-4.3
	c-3.8-0.8-4.1-3-3.8-5.6c0.1-1.3,0.4-2.5,0.6-3.8c0.2-1.2,0.7-2.3,2.1-2.3c2.1-0.1,2.4-1.3,2.6-3.1c0.2-2.2,0.4-4.3,1-6.4
	c0.4-1.6,1.1-3.2,2-4.5c1.6-2.4,3.8-3.9,7.4-2c-2-5.2-1.1-9,3.4-11.6C41.2,0,43.2,0,45.3,0z"/>
</svg>
