<?xml version="1.0" encoding="utf-8"?>
<!-- Generator: Adobe Illustrator 19.0.0, SVG Export Plug-In . SVG Version: 6.00 Build 0)  -->
<svg version="1.1" id="Capa_1" xmlns="http://www.w3.org/2000/svg" xmlns:xlink="http://www.w3.org/1999/xlink" x="0px" y="0px"
	 viewBox="412 0 100 100" style="enable-background:new 412 0 100 100;" xml:space="preserve">
<g>
	<g>
		<path d="M512,0h-12.4l-5.2,2.6L489.3,0h-24.3l-5.9,2.9h-16.2L437,0h-25v47.1l2.9,5.9v16.2L412,75v25h50l5.2-2.6l5.2,2.6H512V60.3
			l-2.6-5.2L512,50V0z M438.4,82.4l-8.8-8.8V56.1l26.4,26.4H438.4z M491.5,82.4h-11.7l-7.6-8.9l-1.6-6.4l-6-2.6l-2.6-3l-32.4-38.1
			l5.9-5.9l26.6,20l32.4,24.4L491.5,82.4z M494.4,43.9l-26.4-26.4h17.6l8.8,8.8V43.9z"/>
	</g>
</g>
</svg>
