<?xml version="1.0" encoding="utf-8"?>
<!-- Generator: Adobe Illustrator 19.0.0, SVG Export Plug-In . SVG Version: 6.00 Build 0)  -->
<svg version="1.1" id="Layer_1" xmlns="http://www.w3.org/2000/svg" xmlns:xlink="http://www.w3.org/1999/xlink" x="0px" y="0px"
	 viewBox="0 0 100 100" style="enable-background:new 0 0 100 100;" xml:space="preserve">
<g id="Icon">
	<polygon id="XMLID_4_" points="50,57 53.3,54.1 59.1,54.1 57.6,52.8 53.7,52.1 53.6,50.7 56.3,50.7 54.7,49.4 52.9,49.1 52.5,46.3 
		53.2,45.7 52.2,32.9 51.7,35.8 51.4,43 50,44.1 48.6,43 48.3,35.8 47.8,32.9 46.8,45.7 47.5,46.3 47.1,49.2 45.3,49.4 43.7,50.7 
		46.4,50.7 46.3,52.1 42.4,52.8 40.9,54.1 46.7,54.1 	"/>
	<path id="XMLID_3_" d="M59.4,45.3L59.4,45.3l0,1.6c0,0,3.1,2.4,3.1,5.3l-3.4,3.4h-3.4l-2.6,2.5v0l0,0l-0.2,0.9h-5.8L47,58.2l0,0v0
		l-2.6-2.5h-3.5l-3.4-3.4c0-2.9,3.1-5.3,3.1-5.3v-1.7h0L0,8.6c0,8.8,0,10.3,3.8,13.8c0.1,0.1,3.3,3.2,3.8,3.5V26
		c0,8.1,0,8.1,3.2,10.8c0.1,0.1,3.7,3.4,3.7,3.4s0,1.1,0,1.5c0,5.8,0,5.9,2.7,8.8c1,1.1,5.1,5,9.2,8.7H13.4l14.4,12.9h15.8l-1.4,2.5
		H30.4l3.9,3.4h10.3L50,67.6l5.5,10.5h10.1l3.9-3.4H57.9l-1.4-2.5h15.8l14.3-12.9H73.7c4.1-3.8,8.2-7.7,9.2-8.7
		c2.7-2.9,2.7-2.9,2.7-8.8c0-0.4,0-1.5,0-1.5s3.6-3.4,3.7-3.4c3.2-2.8,3.2-2.8,3.2-10.8v-0.1c0.5-0.4,3.7-3.5,3.8-3.5
		c3.7-3.5,3.7-5,3.8-13.8L59.4,45.3z"/>
	<path id="XMLID_2_" d="M50.1,100L50.1,100L50.1,100z"/>
	<path id="XMLID_1_" d="M50.1,74.5L45,86.6l3.5,3.4c-0.5,2.9-0.9,5.9-0.9,6.5c0,1.3,2.4,3.4,2.5,3.5c0.1-0.1,2.5-2.2,2.5-3.5
		c0-0.6-0.4-3.4-0.9-6.2l3.5-3.6L50.1,74.5z"/>
</g>
</svg>
