<?xml version="1.0" encoding="utf-8"?>
<!-- Generator: Adobe Illustrator 19.0.0, SVG Export Plug-In . SVG Version: 6.00 Build 0)  -->
<svg version="1.1" id="Layer_1" xmlns="http://www.w3.org/2000/svg" xmlns:xlink="http://www.w3.org/1999/xlink" x="0px" y="0px"
	 viewBox="28 0 100 100" style="enable-background:new 28 0 100 100;" xml:space="preserve">
<path d="M107.9,80.3L104,68.5c1.4-2.1,2.7-4.3,3.6-6.6L128,49.7l-20.7-12.2c-0.9-2-1.9-3.9-3.1-5.7l3.4-13.4l-13,4.3
	c-1.5-1-3.2-1.8-4.9-2.5L77.7,0L65.9,20.1c-1.9,0.8-3.8,1.7-5.5,2.8l-14.7-4.2L50,33.5c-0.8,1.4-1.6,2.9-2.2,4.5L28,49.7l19.6,11.7
	c0.7,1.8,1.5,3.4,2.4,5l-4.1,14.2l13.7-4c2,1.3,4.1,2.5,6.3,3.3L77.7,100l12-20.2c1.9-0.8,3.7-1.7,5.4-2.8
	C95.1,77.1,107.9,80.3,107.9,80.3z M63.2,66.6c-0.3-0.4-0.7-1.7-0.7-1.7l-0.7-1.5c0,0-0.7-1.1,0.7-0.9c1.4,0.2,6.5,2.2,9.3,2.3
	c2.8,0.1,4.3-1.4,4.8-1.5s3.5-1.3,4.4-1.5c0.9-0.1,6.3-3.5,7.1-11.5c0.8-8-6.4-12.7-10.5-12.8c0,0-2.6-0.1-3.2,0.3
	c-0.6,0.4-4.4,2.1-6.1,2.4c0,0-1.4,1.3-1.2,2.9c0.2,1.6,0.2,7.2,6.1,7.2c0,0,1.4-0.8,1.3-6.3c0,0,7.3-0.6,7.5,6.3s-6.6,7.8-10.8,7.6
	s-13-6-12.4-15.2l0.5-3.3l1.5-1.7c0,0,3.4-6.8,11.1-8.9c0,0,0.7-1.1,1.5-1.1s1.5,0.9,2.7,1c1.2,0.1,1.6-1.1,2.7-1
	c1.1,0.1,1.2,0.9,2.4,1.1c1.2,0.2,6.9,0.9,11.6,7.2c0,0,0.2,1.6,0.9,1.9c0.7,0.3,2.2,1,2.4,1.5c0.2,0.5,1.8,6,1.6,8.4
	S97,61.1,89.7,64.4l-0.1,2c0,0-5.5,4.9-13.8,4.3C67.4,70.1,65.2,69.2,63.2,66.6z"/>
</svg>
