<?xml version="1.0" encoding="utf-8"?>
<!-- Generator: Adobe Illustrator 19.0.0, SVG Export Plug-In . SVG Version: 6.00 Build 0)  -->
<svg version="1.1" id="Layer_1" xmlns="http://www.w3.org/2000/svg" xmlns:xlink="http://www.w3.org/1999/xlink" x="0px" y="0px"
	 viewBox="-134 206.2 100 100" style="enable-background:new -134 206.2 100 100;" xml:space="preserve">
<g>
	<path d="M-52.1,226c-3.4-2.3-7.7-3.5-12.2-3.5c-7.3,0-13.8,3.2-17.7,8.7c-0.9,1.2-1.5,2.5-2,3.8c-0.5-1.3-1.1-2.6-2-3.8
		c-4-5.5-10.4-8.7-17.7-8.7c-4.4,0-8.8,1.3-12.2,3.5c-10,6.7-10.3,19.3-6.2,28.8c1.8,4,4.4,7.8,8.2,11.4c1.9,1.8,4,3.6,6,5.2
		c1.4,1.2,2.8,2.4,4.1,3.5c2.5,2.3,7.3,6.9,10.1,10.5c2,2.6,2.7,4.2,3.7,6.3c0.2,0.5,0.5,1.1,0.8,1.7c0.6,1.3,1.6,4.3,2.4,7.6
		c0.1,0.6,0.3,1.3,0.4,2c0.1,0.5,0.2,1,0.3,1.2c0,0.1,0,0.1,0.1,0.2c0.5,1.6,1.7,1.8,2.3,1.8c1.1,0,2-0.8,2.2-1.9
		c0.1-0.4,0.2-0.9,0.4-1.6c0.1-0.5,0.3-1.1,0.4-1.7c0.5-2.6,1.4-5.2,2.4-7.7c0.2-0.4,0.3-0.8,0.5-1.2c1-2.3,1.7-3.9,3.9-6.8
		c2.8-3.6,7.6-8.2,10.1-10.5c1.2-1.1,2.5-2.1,3.8-3.3c2.1-1.7,4.2-3.5,6.2-5.5c3.7-3.6,6.4-7.4,8.2-11.4
		C-41.8,245.3-42.1,232.7-52.1,226z M-84,243.9c0.1,0.4,0.3,0.9,0.5,1.3c1.5,3.9,5.7,6.6,10,6.6c2.6,0,5-1,6.8-2.8
		c1.9-1.9,2.7-4.5,2.2-7c-0.5-2.3-2.1-4.2-4.4-5.2c-0.5-0.2-1.7-0.7-2.6-0.7c-0.1,0-0.2,0-0.3,0c-0.7,0.1-1.3,0.4-1.6,1
		c-0.4,0.6-0.3,1.4,0,2c0.3,0.5,0.9,0.8,1.4,1c0.7,0.3,1.5,0.6,2,1.6c0.3,0.6-0.5,2.6-1.6,3.1c-0.5,0.2-1.1,0.4-1.8,0.4
		c-1,0-1.9-0.3-2.4-0.7c-2.8-2.2-1.4-5.8-1.3-6.1c1.7-3.6,6.1-6,11.2-6c2,0,4,0.4,5.9,1.1c2.8,1,5.3,4.1,6.1,6.5
		c2.4,6.7-1.3,13.5-4.8,18c-2.4,3.1-4.5,5.5-7.3,8l0,0c-3.2,2.1-12.6,11.9-16.5,20.5c-0.6,1.3-1.1,2.7-1.6,4c-0.5-1.5-1-2.8-1.6-4
		c-3.9-8.5-13-18.1-16.3-20.4l0,0c-2.7-2.5-4.8-4.9-7.4-8.1c-3.6-4.5-7.3-11.3-4.8-18c0.9-2.4,3.3-5.4,6.1-6.5
		c1.8-0.7,3.8-1.1,5.8-1.1c5.2,0,9.6,2.3,11.3,6c0.6,1.3,1.1,4.3-1.3,6.1c-0.5,0.4-1.3,0.6-2.3,0.6c-0.7,0-1.4-0.1-1.9-0.3
		c-1-0.5-1.9-2.5-1.6-3.1c0.5-1,1.3-1.4,2-1.6c0.5-0.2,1.1-0.4,1.4-1c0.4-0.6,0.4-1.4,0-2c-0.3-0.6-1-1-1.7-1c-0.1,0-0.2,0-0.3,0
		c-0.6,0-1.3,0.2-2.1,0.5l-0.6,0.2c-2.4,1-4,2.9-4.4,5.2c-0.5,2.5,0.3,5.1,2.2,7c1.8,1.8,4.2,2.8,6.8,2.8c4.4,0,8.5-2.7,10-6.7
		C-84.3,244.8-84.1,244.4-84,243.9z"/>
	<path d="M-92,225.2h16.2c0.7,0,1.3-0.6,1.4-1.3c3.8-15.3,3.8-15.6,3.8-15.8c0-0.9-0.7-1.5-1.5-1.5c-0.4,0-0.8,0.2-0.9,0.3
		c-0.1,0.1-0.2,0.1-0.3,0.2l-5.2,5.9c0,0-0.2,0.2-0.2,0.2c-3.7-6.2-3.9-6.4-4-6.5c-0.3-0.3-0.7-0.5-1.2-0.5c-0.6,0-1,0.3-1.2,0.5
		c-0.1,0.1-0.1,0.1-0.2,0.2l-3.9,6.1l-5.3-5.9c-0.2-0.2-0.4-0.3-0.6-0.4c-0.1,0-0.3-0.1-0.5-0.1c-0.9,0-1.6,0.7-1.6,1.6
		c0,0.2,0,0.5,3.8,15.9C-93.2,224.8-92.7,225.2-92,225.2z"/>
</g>
</svg>
