<?xml version="1.0" encoding="utf-8"?>
<!-- Generator: Adobe Illustrator 19.0.0, SVG Export Plug-In . SVG Version: 6.00 Build 0)  -->
<svg version="1.1" id="Layer_1" xmlns="http://www.w3.org/2000/svg" xmlns:xlink="http://www.w3.org/1999/xlink" x="0px" y="0px"
	 viewBox="0 0 100 100" style="enable-background:new 0 0 100 100;" xml:space="preserve">
<g id="XMLID_1_">
	<path id="XMLID_2_" d="M82,20c-8.4-5.6-22.1-4.5-28.9,5c-2.9,4.1-3.1,8.7-1.4,13.2c2.2,5.6,10.3,8.2,15,3.5
		c3.1-3.1,2.8-8.3-1.8-10.2c-0.9-0.4-1.9-0.7-2.3-0.6c-0.5,0-0.9,0.5-0.6,1c0.3,0.5,2.5,0.6,3.6,2.8c0.7,1.5-0.6,4.3-2.3,5.1
		c-1.6,0.8-4.3,0.7-5.8-0.5c-2.9-2.3-2.6-5.9-1.7-8c2.8-6.1,11.7-8.7,19.4-5.8c3.2,1.2,6.1,4.6,7.1,7.5c2.4,6.6-0.3,13.7-5.2,19.9
		c-2.3,3-4.6,5.6-7.8,8.5c1.7-1.5-11.2,8.9-16.5,20.6c-1.3,2.8-2.2,6.1-2.9,8.9c-0.6-2.8-1.6-6.1-2.9-8.9
		c-5.3-11.7-18.2-22.2-16.5-20.6c-3.1-2.9-5.4-5.5-7.8-8.5c-4.9-6.2-7.6-13.3-5.2-19.9c1.1-2.9,3.9-6.3,7.1-7.5
		c7.6-2.9,16.6-0.3,19.4,5.8c0.9,2,1.2,5.7-1.7,8c-1.5,1.2-4.1,1.2-5.8,0.5c-1.6-0.8-3-3.6-2.3-5.1c1.1-2.3,3.3-2.3,3.6-2.8
		c0.3-0.5-0.1-1-0.6-1c-0.4-0.1-1.4,0.3-2.3,0.6c-4.6,1.9-4.9,7.1-1.8,10.2c4.8,4.8,12.8,2.1,15-3.5c1.8-4.5,1.6-9.1-1.4-13.2
		c-6.8-9.5-20.5-10.6-28.9-5c-10,6.7-9.7,19.1-5.9,27.9c1.7,3.9,4.3,7.6,8.1,11.3c3.4,3.2,7.2,6.2,10.3,9c2.8,2.5,7.7,7.3,10.6,11
		c2.7,3.5,3.3,5.5,4.7,8.5c0.6,1.3,1.7,4.4,2.6,8.2c0.2,1.1,0.6,2.7,0.7,3.3c0.2,0.6,0.5,0.9,1,0.9h0h0c0.4,0,0.8-0.3,0.9-0.9
		c0.2-0.6,0.5-2.2,0.8-3.3c0.8-3.8,2-6.8,2.6-8.2c1.3-3,1.9-4.9,4.7-8.5c2.9-3.7,7.8-8.5,10.6-11c3.1-2.8,6.9-5.7,10.3-9
		c3.8-3.7,6.4-7.4,8.1-11.3C91.7,39.1,91.9,26.7,82,20z"/>
	<path id="XMLID_5_" d="M58.3,16.5c0,0,3.9-15.8,3.9-16.1c0-0.3-0.3-0.1-0.3-0.1l-5.4,6.2l-0.2,0.2c0.1,0,0.1,0.1,0.2,0.1
		c0.4,0.3,0.6,0.8,0.6,1.4c0,1-0.8,1.8-1.8,1.8c-1,0-1.8-0.8-1.8-1.8c0-0.6,0.3-1.1,0.7-1.5c0,0-3.9-6.5-4.1-6.7
		c-0.2-0.2-0.4,0-0.4,0l-4.2,6.6c0.5,0.3,0.8,0.9,0.8,1.5c0,1-0.8,1.8-1.8,1.8c-1,0-1.8-0.8-1.8-1.8c0-0.6,0.3-1.1,0.8-1.5L38,0.4
		c0,0-0.3-0.1-0.3,0.2c0,0.3,3.9,16,3.9,16H58.3z"/>
</g>
</svg>
