<?xml version="1.0" encoding="utf-8"?>
<!-- Generator: Adobe Illustrator 19.0.0, SVG Export Plug-In . SVG Version: 6.00 Build 0)  -->
<svg version="1.1" id="Layer_1" xmlns="http://www.w3.org/2000/svg" xmlns:xlink="http://www.w3.org/1999/xlink" x="0px" y="0px"
	 viewBox="0 0 100 100" style="enable-background:new 0 0 100 100;" xml:space="preserve">
<g>
	<g>
		<path id="XMLID_3_" d="M87.4,51.9c0,9.2-3.4,17.7-8.9,24.2h12.9c0,0,6.8-11.2,6.8-24.2C98.1,27,79.3,6.6,55.1,4v10.8
			C73.3,17.4,87.4,33,87.4,51.9"/>
	</g>
	<g>
		<path id="XMLID_2_" d="M16,85.9V67.4c-2.2-4.7-3.4-10-3.4-15.5s1.2-10.8,3.4-15.5V17.8c-8.7,8.7-14.1,20.7-14.1,34
			S7.3,77.2,16,85.9"/>
	</g>
	<g>
		<polygon id="XMLID_1_" points="15.8,100 85,100 96.2,83.7 46.1,83.7 46.1,0 15.8,0 24.2,10.1 24.2,89.9 		"/>
	</g>
</g>
</svg>
