<?xml version="1.0" encoding="utf-8"?>
<!-- Generator: Adobe Illustrator 19.0.0, SVG Export Plug-In . SVG Version: 6.00 Build 0)  -->
<svg version="1.1" id="Layer_1" xmlns="http://www.w3.org/2000/svg" xmlns:xlink="http://www.w3.org/1999/xlink" x="0px" y="0px"
	 viewBox="0 0 100 100" style="enable-background:new 0 0 100 100;" xml:space="preserve">
<path id="XMLID_5_" d="M5.1,47.7c0.1-0.9,0.1-1.8,0.2-2.7c0.1-0.9,0.2-1.9,0.4-2.8c0.6-3.8,1.7-7.7,3.5-11.5c0.5-1,1-2,1.6-3
	c0.7-1.2,0.5-2.6-0.4-3.6l0,0c-1.1-1.1-1.1-3,0-4.1l5.9-6c1.1-1.1,2.9-1.1,4.1,0l0.2,0.2c0.9,0.9,2.3,1.1,3.5,0.5c1-0.6,2-1.1,3-1.5
	c3.8-1.7,7.6-2.7,11.3-3.3C42,9.1,45.5,9,48.8,9.2c3.3,0.2,6.3,0.7,9,1.3c2.7,0.6,5.1,1.3,7.2,2.1c2.1,0.7,3.9,1.5,5.3,2.2
	c1.4,0.7,2.6,1.3,3.3,1.7c0.4,0.2,0.7,0.4,0.9,0.5c0.2,0.1,0.3,0.2,0.3,0.2l-1.2,3.5c0,0-0.4,0-1.2-0.1c-0.8-0.1-2-0.1-3.5-0.2
	c-3-0.1-7.2-0.3-12.1-0.1c-2.5,0.1-5.1,0.3-7.8,0.7c-2.7,0.4-5.4,0.9-8.1,1.7c-2.7,0.8-5.2,1.9-7.6,3.2c-0.2,0.1-0.5,0.3-0.7,0.4
	l61.5,62.6c1.1,1.1,1.1,3,0,4.1l-5.9,6c-1.1,1.1-2.9,1.1-4.1,0L23,36.8c0,0,0,0,0,0c-1.4,2.6-2.4,5.4-3.2,8.3
	c-0.3,1.3-0.6,2.7-0.9,4.1c-0.2,1.4-0.4,2.7-0.6,4.1c-0.2,1.3-0.3,2.7-0.4,4c-0.1,1.3-0.2,2.6-0.2,3.8c-0.2,4.9-0.2,9.2-0.1,12.3
	c0.1,3,0.1,4.8,0.1,4.8l-4.2,1.5c0,0-0.1-0.1-0.2-0.3c-0.1-0.2-0.3-0.5-0.5-0.9c-0.4-0.8-1.1-1.9-1.8-3.4c-0.7-1.5-1.5-3.3-2.3-5.5
	c-0.8-2.2-1.5-4.6-2.1-7.4c-0.3-1.4-0.6-2.9-0.8-4.4c-0.1-0.8-0.2-1.6-0.3-2.4c-0.1-0.8-0.1-1.6-0.2-2.5C5,52.1,5,51.2,5,50.3
	C5,49.5,5,48.6,5.1,47.7z"/>
</svg>
