<?xml version="1.0" encoding="utf-8"?>
<!-- Generator: Adobe Illustrator 19.0.0, SVG Export Plug-In . SVG Version: 6.00 Build 0)  -->
<svg version="1.1"
	 id="svg3960" xmlns:rdf="http://www.w3.org/1999/02/22-rdf-syntax-ns#" xmlns:svg="http://www.w3.org/2000/svg" xmlns:cc="http://creativecommons.org/ns#" xmlns:dc="http://purl.org/dc/elements/1.1/"
	 xmlns="http://www.w3.org/2000/svg" xmlns:xlink="http://www.w3.org/1999/xlink" x="0px" y="0px" viewBox="500 0 100 100"
	 style="enable-background:new 500 0 100 100;" xml:space="preserve">
<g>
	<path id="path3961" d="M549.5,0c-11.1,0.1-22.1,4-30.8,11l9.4,11c8-6.3,18.7-8.9,28.7-6.9c5.5,1.1,10.7,3.5,15.1,6.9l9.4-11
		C572.4,3.8,561-0.2,549.5,0z"/>
	<path id="path4052" d="M515.6,13.7c-10,9.3-15.8,22.9-15.6,36.6c0,14.2,6.5,28.2,17.3,37.4c10,8.7,23.5,13.2,36.7,12
		c14.3-1.1,27.9-8.7,36.4-20.4c8.2-11.1,11.4-25.6,8.7-39.2c-2-10.3-7.4-19.9-15.1-27.1l-9.4,11c7.6,7.2,11.8,17.8,11,28.2
		c-0.3,5.2-1.8,10.3-4.4,14.8l-19.2-18.6l-9.7-20.9l0,31.7l19.4,18.8c-8.7,6.7-20.6,9-31.1,6c-4.3-1.2-8.4-3.2-11.9-5.9l19.6-18.9
		c0-10.3,0.1-21.4,0-31.7l-9.7,21L519,67.4c-5.9-10.3-6.1-23.7-0.4-34.2c1.8-3.3,4.1-6.4,6.9-9l-9.4-11
		C515.9,13.4,515.8,13.6,515.6,13.7z"/>
</g>
</svg>
