<?xml version="1.0" encoding="utf-8"?>
<!-- Generator: Adobe Illustrator 19.0.0, SVG Export Plug-In . SVG Version: 6.00 Build 0)  -->
<svg version="1.1" id="Layer_1" xmlns="http://www.w3.org/2000/svg" xmlns:xlink="http://www.w3.org/1999/xlink" x="0px" y="0px"
	 viewBox="0 0 100 100" style="enable-background:new 0 0 100 100;" xml:space="preserve">
<style type="text/css">
	.st0{fill:#FFFFFF;}
</style>
<path id="XMLID_20_" class="st0" d="M100,45v5c0-1.7-0.1-3.4-0.3-5H100z"/>
<path id="XMLID_21_" class="st0" d="M99.8,55c0.2-1.6,0.3-3.3,0.3-5v5H99.8z"/>
<g id="XMLID_1_">
	<path id="XMLID_23_" d="M69.4,55h30.4c-2.5,25.3-23.8,45-49.8,45S2.8,80.3,0.3,55h30.4c2.2,8.6,10,15,19.4,15S67.2,63.6,69.4,55z"
		/>
	<path id="XMLID_24_" d="M30.6,45H0.3C2.8,19.7,24.1,0,50,0s47.2,19.7,49.8,45H69.4c-2.2-8.6-10-15-19.4-15S32.8,36.4,30.6,45z"/>
	<path id="XMLID_17_" class="st0" d="M0,55v-5c0,1.7,0.1,3.4,0.3,5H0z"/>
	<path id="XMLID_18_" class="st0" d="M0.3,45C0.1,46.6,0,48.3,0,50v-5H0.3z"/>
	<path id="XMLID_9_" d="M62.5,50c0,1.8-0.4,3.5-1,5c-1.9,4.4-6.3,7.5-11.5,7.5s-9.5-3.1-11.5-7.5c-0.7-1.5-1-3.2-1-5
		c0-1.8,0.4-3.5,1-5c1.9-4.4,6.3-7.5,11.5-7.5s9.5,3.1,11.5,7.5C62.1,46.5,62.5,48.2,62.5,50z"/>
</g>
</svg>
