<?xml version="1.0" encoding="utf-8"?>
<!-- Generator: Adobe Illustrator 19.0.0, SVG Export Plug-In . SVG Version: 6.00 Build 0)  -->
<svg version="1.1" id="Layer_1" xmlns="http://www.w3.org/2000/svg" xmlns:xlink="http://www.w3.org/1999/xlink" x="0px" y="0px"
	 viewBox="0 0 100 100" style="enable-background:new 0 0 100 100;" xml:space="preserve">
<path id="XMLID_4_" d="M1.1,0v100h97.7V0H1.1z M42.4,12.7l20.4-0.1c0,0-4.1,11.4-4.2,18.9l-12.4,0.1c0,0-0.5-9.2-4-18.6L42.4,12.7z
	 M14.5,61.7l-0.2-0.2l-0.1-20.4c0,0,10.9,3.9,18.3,4l0.1,13.1C32.6,58.2,23.9,58.2,14.5,61.7z M36.6,58.2L36.3,45l6-0.1l0.1,13.3
	H36.6z M46.2,35.2L59,35.2l0.1,6.2H46.3L46.2,35.2z M48.2,51.7l3.9-4.1l4.1,4l-3.8,4.3L48.2,51.7z M53.8,62.6l9.2-9.1l4,4.7L58.3,67
	L53.8,62.6z M71.8,85.7c0,0-5.2-10.9-10.4-16.3l8.7-8.8c0,0,6.9,6.2,16,10.3l0.1,0.3L71.8,85.7z"/>
</svg>
