<?xml version="1.0" encoding="utf-8"?>
<!-- Generator: Adobe Illustrator 19.0.0, SVG Export Plug-In . SVG Version: 6.00 Build 0)  -->
<svg version="1.1" id="Layer_1" xmlns="http://www.w3.org/2000/svg" xmlns:xlink="http://www.w3.org/1999/xlink" x="0px" y="0px"
	 viewBox="0 0 100 100" style="enable-background:new 0 0 100 100;" xml:space="preserve">
<g id="XMLID_181_">
	<path id="XMLID_182_" d="M35.1,87.3l-0.1,0c-1.6,0.2-3.2,0.7-5,1.6c-1.5,0.8-2.7,1.8-3.6,3c-0.1,0.1-0.1,0.2-0.2,0.3
		c-0.1,0.2-0.2,0.4-0.3,0.6L25.7,93l0.2,0.1c0.5,0.1,1,0.2,1.5,0.2c0.4,0,0.9-0.1,1.4-0.2c2.3-0.5,4.5-1.5,6.5-3.2
		c0.4-0.3,0.7-0.7,1-1.1c0.2-0.2,0.3-0.5,0.4-0.8l0.1-0.2l-0.1-0.1C36.1,87.2,35.6,87.3,35.1,87.3z"/>
	<path id="XMLID_183_" d="M73.7,92.1c-0.2-0.3-0.5-0.7-0.8-0.9c-1.2-1.3-2.9-2.4-5-3.1c-0.9-0.3-2.1-0.7-3.3-0.7l-0.1,0
		c-0.4,0-0.9,0-1.2,0.4l-0.1,0.1l0,0.1c0.1,0.7,0.5,1.2,1,1.6c2.1,2,4.4,3.2,7,3.6c0.4,0.1,0.9,0.1,1.4,0.1c0.5,0,1-0.1,1.5-0.2
		l0.3-0.1l-0.2-0.2C74,92.5,73.9,92.3,73.7,92.1z"/>
	<path id="XMLID_184_" d="M79.2,89.2c-0.3-0.3-0.5-0.6-0.8-0.8c-2.4-2-5.2-3-8.7-2.9c-0.5,0-1.1,0-1.5,0.5l-0.1,0.1l0,0.1
		c0.2,0.7,0.3,0.9,1,1.4c1,0.6,1.9,1.2,2.9,1.7c1.6,0.7,3.2,1.1,4.9,1.1c0.2,0,0.3,0,0.5,0c0.7,0,1.3-0.1,2-0.4l0.2-0.1l-0.2-0.2
		C79.4,89.4,79.3,89.3,79.2,89.2z"/>
	<path id="XMLID_185_" d="M31.6,86.7c0.1-0.2,0.3-0.5,0.2-0.7c-0.1-0.3-0.4-0.4-0.6-0.5c-0.1,0-0.3-0.1-0.4-0.1c-0.2,0-0.4,0-0.6,0
		c-0.6,0-1.2,0-1.9,0c-2.3,0.3-4.4,1.1-6.2,2.3c-0.6,0.5-1.2,1-1.7,1.8l-0.1,0.2l0.2,0.1c0.4,0.1,0.6,0.2,0.9,0.2
		c0.6,0.1,1.2,0.1,1.7,0.1c2.8,0,5.4-1,7.9-3C31.4,87.2,31.5,87,31.6,86.7z"/>
	<path id="XMLID_186_" d="M82.6,84.6c-2.1-1.3-4.5-1.8-7.4-1.7c-0.7,0-1.2,0.1-1.7,0.3c-0.3,0.1-0.9,0.2-1,0.7l0,0.1l0,0.1
		c0.5,0.9,1.8,1.7,3.7,2.3c1.2,0.3,2.6,0.5,3.9,0.5c1.5,0,2.9-0.2,3.9-0.8l0.2-0.1l-0.5-0.4C83.4,85.1,83,84.8,82.6,84.6z"/>
	<path id="XMLID_187_" d="M26.2,85.3l0.1-0.1c0.5-0.3,1.1-0.6,1.3-1.3l0-0.1l-0.1-0.1c-0.4-0.5-0.9-0.6-1.2-0.6
		c-1.2-0.3-2.5-0.3-4-0.1c-2,0.2-3.7,0.8-5.2,1.7c-0.4,0.3-0.9,0.6-1.3,1.2L15.9,86l0.2,0.1c0.4,0.2,0.8,0.3,1.2,0.4
		c0.8,0.2,1.6,0.3,2.5,0.3c0.4,0,0.9,0,1.4-0.1C23,86.6,24.7,86.1,26.2,85.3z"/>
	<path id="XMLID_188_" d="M87.7,81.1c-0.2-0.1-0.4-0.2-0.6-0.4c-1.2-0.6-2.5-1-4.1-1.1c-1.8-0.2-3.5,0-5,0.5c-0.5,0.2-1.1,0.4-1.5,1
		l-0.1,0.1l0.1,0.1c0.3,0.5,0.7,0.8,1.3,1l0.4,0.1c0.9,0.3,1.8,0.5,2.8,0.7c0.7,0.1,1.3,0.2,1.9,0.2c1.4,0,2.7-0.2,3.8-0.7
		c0.3-0.1,0.6-0.3,0.9-0.4c0.2-0.1,0.4-0.2,0.6-0.3l0.3-0.1l-0.3-0.2C88,81.3,87.9,81.2,87.7,81.1z"/>
	<path id="XMLID_189_" d="M19,83.1c0.8-0.1,1.7-0.4,2.5-0.6c0.3-0.1,0.5-0.1,0.8-0.2c0.6-0.2,1-0.5,1.2-1l0-0.1l-0.1-0.1
		c-0.4-0.6-1.1-0.8-1.7-1c-2.2-0.6-4.4-0.7-6.6-0.1c-1.3,0.2-2.4,0.7-3.4,1.6l-0.2,0.2l0.3,0.1c0.2,0.1,0.3,0.2,0.5,0.2
		c0.4,0.2,0.7,0.4,1,0.5c1.2,0.5,2.4,0.7,3.8,0.7C17.7,83.2,18.4,83.2,19,83.1z"/>
	<path id="XMLID_190_" d="M91.3,76.3c-0.3-0.1-0.6-0.3-0.8-0.3c-1.9-0.6-3.8-0.6-6-0.1c-0.8,0.2-1.7,0.5-2.7,0.9
		c-0.5,0.2-1,0.5-1.3,1.3l-0.1,0.2l0.2,0.1c0.1,0.1,0.3,0.1,0.4,0.2c0.2,0.1,0.4,0.3,0.7,0.3c0.8,0.2,1.4,0.3,2,0.4
		c0.5,0,1,0.1,1.4,0.1c2,0,3.8-0.4,5.4-1.3c0.4-0.2,0.7-0.4,1.1-0.7c0.2-0.1,0.3-0.2,0.5-0.3l0.3-0.2l-0.3-0.1
		C91.8,76.5,91.5,76.4,91.3,76.3z"/>
	<path id="XMLID_191_" d="M18,78.9c0.4-0.1,0.7-0.2,1-0.3c0.2-0.1,0.5-0.3,0.6-0.6c0-0.3-0.2-0.5-0.4-0.7c-0.2-0.2-0.5-0.4-0.9-0.6
		c-2.5-1.1-5-1.5-7.6-1.1c-1,0.2-1.8,0.5-2.6,1l-0.2,0.1l0.1,0.2c0.6,0.7,1.4,1.2,2.5,1.5c1.5,0.5,3,0.8,4.5,0.8
		C16,79.2,17,79.1,18,78.9z"/>
	<path id="XMLID_192_" d="M14.8,75c0.5,0,1-0.1,1.3-0.6l0.1-0.1l0-0.1c-0.4-0.9-1.5-1.7-3.1-2.4c-2.4-0.9-5.9-1.3-7.9-0.4l-0.2,0.1
		l0.2,0.2c0.1,0.1,0.3,0.3,0.4,0.4c0.3,0.3,0.5,0.5,0.8,0.7c2.1,1.5,4.4,2.2,7.2,2.2C13.9,75.1,14.4,75.1,14.8,75z"/>
	<path id="XMLID_193_" d="M94,71.1c-1.1-0.3-2.3-0.3-3.5-0.2c-2,0.3-3.8,0.9-5.4,1.9c-0.4,0.2-0.7,0.6-1,0.9
		c-0.2,0.2-0.3,0.4-0.2,0.6c0,0.2,0.2,0.3,0.5,0.4c0.4,0.1,1,0.3,1.5,0.3c1.3,0,2.2-0.1,3.1-0.2c2.2-0.4,4-1.2,5.5-2.5
		c0.1-0.2,0.3-0.4,0.6-0.7l0.2-0.2l-0.3-0.1C94.5,71.3,94.2,71.2,94,71.1z"/>
	<path id="XMLID_194_" d="M13.3,70.4L13.3,70.4l0.1-0.2c-0.2-0.8-0.7-1.2-1.2-1.6c-2-1.6-4.1-2.5-6.4-2.8c-0.9-0.1-1.8-0.2-2.9,0.2
		l-0.2,0.1l0.1,0.2c0.3,0.6,0.8,1.1,1.3,1.6c2.1,1.8,4.7,2.8,7.7,3C12.2,70.9,12.7,70.9,13.3,70.4z"/>
	<path id="XMLID_195_" d="M97.2,66.1v-0.2l-0.2,0c-0.2,0-0.3,0-0.5-0.1c-0.2,0-0.5-0.1-0.7-0.1h0c-2.9-0.1-5.6,0.9-8.2,3.1
		c-0.3,0.3-0.6,0.6-0.8,0.9c-0.1,0.2-0.2,0.4-0.1,0.6c0.1,0.2,0.2,0.3,0.5,0.4c0.3,0.1,0.6,0.1,0.9,0.1c0.1,0,0.1,0,0.2,0
		c3-0.2,5.5-1.2,7.6-3c0.3-0.3,0.7-0.7,1-1.1c0.1-0.1,0.2-0.2,0.3-0.4l0.1-0.1l-0.1-0.1C97.3,66.2,97.2,66.1,97.2,66.1z"/>
	<path id="XMLID_196_" d="M9.9,66.1c0.2,0,0.3,0,0.5-0.1c0.1,0,0.2,0,0.3-0.1l0.2,0l0-0.2c-0.1-0.8-0.2-1-0.7-1.6
		c-1.8-2-4-3.3-6.3-3.9c-0.7-0.2-1.5-0.3-2.6-0.1l-0.2,0L1,60.3c0.3,0.8,0.8,1.4,1.4,2.1c1.6,1.7,3.6,2.8,6.2,3.5
		C9,66,9.4,66.1,9.9,66.1z"/>
	<path id="XMLID_197_" d="M98,60c-0.3,0-0.6,0-0.9,0.1c-2.8,0.5-5.1,1.8-7.2,4.1c-0.3,0.3-0.5,0.6-0.7,1c-0.1,0.1-0.1,0.2-0.2,0.4
		L89,65.7l0.2,0.1c0.4,0.2,0.8,0.3,1.1,0.3c0.3,0,0.6-0.1,0.8-0.1c1.6-0.3,3.1-1,4.6-2c1.3-0.9,2.3-1.9,3-3c0.1-0.2,0.2-0.4,0.3-0.7
		l0.1-0.2l-0.2,0C98.5,60,98.2,60,98,60z"/>
	<path id="XMLID_198_" d="M7.3,61.2c0.3,0.1,0.6,0.2,1,0.2c0.1,0,0.2,0,0.2,0c0.3,0,0.4-0.1,0.5-0.2C9,61.1,9.1,61,9.1,60.7l0-0.1
		c-0.1-0.3-0.2-0.6-0.4-0.9c-1.7-2.6-3.9-4.3-6.6-5.1c-0.4-0.1-0.8-0.2-1.2-0.3c-0.2,0-0.3,0-0.5-0.1l-0.3,0l0,0.3
		c0.1,0.9,0.4,1.4,0.8,2C2.4,58.6,4.5,60.2,7.3,61.2z"/>
	<path id="XMLID_199_" d="M99.3,54.3c-0.3,0-0.5,0-0.8,0.1c-2.2,0.4-4.1,1.6-5.8,3.5c-0.5,0.6-1,1.2-1.4,1.8L91.2,60
		c-0.3,0.4-0.4,0.9-0.2,1.3l0,0.1l0.1,0c0.2,0.1,0.4,0.1,0.6,0.1c0.4,0,0.7-0.1,1-0.2l0.2-0.1c1.8-0.7,3.4-1.7,4.7-3.1
		c0.9-0.9,1.5-1.8,1.8-2.6c0.1-0.2,0.2-0.4,0.3-0.6c0-0.1,0.1-0.2,0.1-0.3l0.1-0.3l-0.3,0C99.6,54.3,99.5,54.3,99.3,54.3z"/>
	<path id="XMLID_200_" d="M6.3,56.4c0.2,0.1,0.4,0.2,0.6,0.2l0.1,0c0.1,0,0.2,0,0.2,0c0.1,0,0.2,0,0.2,0c0.1,0,0.1,0,0.2,0h0.2
		l0-0.2c0.1-0.6,0.1-0.9-0.2-1.6c-1.3-2.5-3-4.4-5.2-5.6C1.9,49,1.5,48.9,1,48.8c-0.2-0.1-0.5-0.2-0.7-0.2l-0.2-0.1l0,0.2
		c0,0.1,0,0.1,0,0.2C0,49,0,49,0,49.1c0,0.1,0,0.1,0,0.2c0,0.2,0.1,0.4,0.2,0.6C1.3,52.7,3.3,54.8,6.3,56.4z"/>
	<path id="XMLID_201_" d="M99.1,48.7c-3.1,1.1-5.3,3.3-6.8,6.7c-0.1,0.2-0.1,0.5-0.1,0.7c0,0.1,0,0.2,0,0.3l0,0.2l0.2,0
		c0.3,0,0.5,0.1,0.7,0.1c0.3,0,0.6-0.1,1-0.3c2.5-1.3,4.3-3.2,5.4-5.5l0.1-0.2c0.2-0.6,0.5-1.2,0.5-2l0-0.2l-0.2,0.1
		c-0.1,0-0.2,0-0.3,0.1C99.3,48.7,99.2,48.7,99.1,48.7z"/>
	<path id="XMLID_202_" d="M5.6,51.2c0.2,0.2,0.5,0.4,0.9,0.4c0.1,0,0.3,0,0.5-0.1l0.1,0l0-0.1c0-0.1,0-0.3,0-0.4
		c0-0.3,0-0.6-0.1-0.9c-0.2-0.6-0.4-1.2-0.6-1.6c-1.1-2.4-2.6-4-4.4-5.2c-0.4-0.2-0.8-0.4-1.2-0.6l-0.4-0.2v0.3c0,0.1,0,0.3,0,0.4
		c0,0.2,0,0.4,0,0.6C1.1,46.8,2.8,49.2,5.6,51.2z"/>
	<path id="XMLID_203_" d="M95.6,45.1c-1.4,1.6-2.3,3.3-2.7,5.2c-0.1,0.4-0.1,0.8,0.3,1.3l0.1,0.1l0.1,0c0.1,0,0.2-0.1,0.3-0.1
		c0.2-0.1,0.5-0.2,0.7-0.3c2.8-1.9,4.5-4.3,5.2-7.3c0-0.2,0.1-0.4,0.1-0.7c0-0.2,0-0.3,0-0.5l0-0.3l-0.3,0.1
		c-0.3,0.1-0.5,0.2-0.7,0.3c-0.1,0.1-0.3,0.1-0.4,0.2C97.3,43.5,96.4,44.2,95.6,45.1z"/>
	<path id="XMLID_204_" d="M5.3,45.8C5.5,46,5.7,46.1,6,46.3c0.1,0.1,0.3,0.2,0.4,0.2l0.1,0.1l0.1-0.1c0.5-0.7,0.4-1.3,0.3-1.9
		c-0.5-2.5-1.5-4.5-3.1-6.2c-0.7-0.7-1.3-1.2-2.1-1.5l-0.2-0.1l0,0.2c0,0.1,0,0.3,0,0.4c0,0.3-0.1,0.5,0,0.8
		C1.6,41,2.9,43.6,5.3,45.8z"/>
	<path id="XMLID_205_" d="M93,45.1c-0.1,0.5,0,0.9,0.3,1.2l0.1,0.1l0.1,0c2.6-0.5,5.6-6.2,5-9.5l0-0.3l-0.2,0.2
		c-0.2,0.1-0.3,0.2-0.5,0.3c-0.3,0.2-0.5,0.3-0.7,0.5C94.8,39.4,93.5,41.8,93,45.1z"/>
	<path id="XMLID_206_" d="M5.4,39.5C5.7,40,6,40.4,6.8,40.6l0.2,0l0-0.2c0-0.1,0.1-0.2,0.1-0.3c0.1-0.2,0.2-0.5,0.2-0.7
		c0.1-3.3-1-6.1-3.2-8.3c-0.2-0.2-0.4-0.4-0.7-0.6l-0.3-0.2l-0.1,0.2c0,0.1-0.1,0.2-0.1,0.2c0,0.1-0.1,0.2-0.1,0.3
		c-0.2,0.9-0.2,1.9,0,3C3.3,36.1,4.1,38,5.4,39.5z"/>
	<path id="XMLID_207_" d="M93.2,40.6L93.2,40.6l0.2,0.1c0.6-0.1,1-0.5,1.3-0.9l0.1-0.1c1.4-1.7,2.2-3.7,2.5-5.7
		c0.1-0.9,0.2-2.1-0.2-3.3l-0.1-0.2l-0.4,0.3c-0.2,0.1-0.4,0.3-0.5,0.4c-2.2,2.1-3.2,4.8-3.3,8.3C92.7,39.9,92.9,40.3,93.2,40.6z"/>
	<path id="XMLID_208_" d="M6.7,34.1c0.2,0.5,0.6,1,1.2,1.2l0.1,0L8,35.3c0.5-0.4,0.6-0.9,0.7-1.4c0.2-1.1,0.1-2.2,0-3.1
		c-0.2-1.9-0.9-3.6-1.9-4.9c-0.1-0.2-0.3-0.3-0.4-0.5c-0.1-0.1-0.3-0.3-0.4-0.5l-0.2-0.3L5.7,25c-0.1,0.2-0.1,0.3-0.2,0.4
		c0,0.1-0.1,0.1-0.1,0.2c-0.3,1-0.4,2-0.3,3.4C5.2,30.9,5.8,32.6,6.7,34.1z"/>
	<path id="XMLID_209_" d="M91.4,34.3c0.1,0.4,0.2,0.8,0.6,1l0.1,0l0.1,0c0.9-0.5,1.8-1.8,2.3-3.6c0.6-2.1,0.8-5.1-0.1-6.7l-0.1-0.2
		L94,25c-0.3,0.3-0.5,0.5-0.7,0.8c-0.9,1.2-1.5,2.7-1.9,4.5C91.2,31.8,91.2,33.1,91.4,34.3z"/>
	<path id="XMLID_210_" d="M9.3,30.1c0.1,0.1,0.2,0.2,0.2,0.3l0.1,0.1l0.1-0.1c0.6-0.4,0.8-0.9,0.9-1.3c0.4-1.7,0.5-3.4,0.3-5.1
		c-0.2-1.3-0.6-2.5-1.3-3.5c-0.1-0.2-0.3-0.3-0.5-0.5L9,19.8L8.9,20c-0.1,0.2-0.1,0.3-0.2,0.4c-0.1,0.2-0.2,0.4-0.3,0.6
		c-1,2.8-0.8,5.6,0.5,8.5C8.9,29.7,9.1,29.9,9.3,30.1z"/>
	<path id="XMLID_211_" d="M89.4,29.5L89.4,29.5c0.2,0.4,0.4,0.7,0.8,0.9l0.1,0l0.1,0c0.5-0.2,0.8-0.6,0.9-1c1.2-2.8,1.4-5.5,0.5-8.2
		c-0.1-0.3-0.2-0.6-0.4-0.9c-0.1-0.1-0.1-0.3-0.2-0.4L91,19.6l-0.2,0.2c-0.1,0.1-0.1,0.2-0.2,0.3c-0.2,0.3-0.3,0.5-0.5,0.7
		C88.8,23.5,88.5,26.3,89.4,29.5z"/>
	<path id="XMLID_212_" d="M84.4,20.5l0.3,0.2l0.1-0.1c0.5-0.5,0.6-0.7,0.7-1.4c0.3-2.1,0-4.2-0.9-6.2c-0.4-1-1-1.9-1.9-2.7l-0.2-0.2
		l-0.1,0.3c0,0.1-0.1,0.3-0.1,0.4c-0.1,0.3-0.2,0.5-0.2,0.8c-0.6,2.8,0,5.5,1.6,8.2C83.9,20.1,84.1,20.3,84.4,20.5z"/>
	<path id="XMLID_213_" d="M15.3,20.7l0.1,0.1l0.1-0.1c0.1-0.1,0.2-0.2,0.3-0.2c0.2-0.2,0.4-0.4,0.6-0.6c1.6-2.7,2.1-5.4,1.6-8.2
		c-0.1-0.3-0.2-0.5-0.3-0.9l-0.2-0.6l-0.2,0.2c-0.1,0.1-0.2,0.3-0.3,0.4c-0.3,0.3-0.5,0.6-0.7,0.9c-1.4,2.1-2,4.6-1.7,7.6
		C14.6,19.7,14.7,20.2,15.3,20.7z"/>
	<path id="XMLID_214_" d="M87.8,25.4L87.8,25.4l0.2,0c0.6-0.4,0.7-1,0.8-1.5c0.4-1.6,0.4-3.3,0.1-5c-0.2-1.2-0.6-2.6-1.7-3.9
		L87,14.8L86.9,15c-0.1,0.1-0.1,0.2-0.2,0.3c-0.1,0.3-0.3,0.5-0.4,0.8c-0.9,2.7-0.8,5.5,0.5,8.3C87,24.8,87.3,25.2,87.8,25.4z"/>
	<path id="XMLID_215_" d="M12.1,25.3L12.1,25.3l0.2,0c0.8-0.6,1.5-2,1.7-3.8c0.3-2.2,0.1-5-1.1-6.5l-0.2-0.2L12.7,15
		c-0.1,0.1-0.2,0.3-0.3,0.4c-0.2,0.2-0.3,0.5-0.5,0.7c-1.2,2.4-1.4,5.1-0.6,8C11.4,24.6,11.6,25.1,12.1,25.3z"/>
	<path id="XMLID_216_" d="M19.1,16.5L19.1,16.5l0.2,0c2.4-0.9,4.5-6.7,3.4-9.6l-0.1-0.2l-0.2,0.1c-0.3,0.2-0.4,0.3-0.6,0.5
		c-2.1,2-3.1,4.6-3.2,8C18.6,15.8,18.6,16.2,19.1,16.5z"/>
	<path id="XMLID_217_" d="M79.6,15.7c0.3,0.4,0.7,0.8,1.2,0.9l0.1,0l0.1-0.1c0.5-0.7,0.6-2.1,0.2-3.7c-0.5-2.3-2-5-3.6-5.8l-0.2-0.1
		L77.3,7c-0.3,1.1-0.4,1.8-0.2,3.3C77.5,12.3,78.3,14.1,79.6,15.7z"/>
	<path id="XMLID_220_" d="M59.8,89.6l-3.1-0.8c3.4-0.5,6.7-1.5,10-2.8c2.5-1.1,5-2.4,7.3-3.8c2.1-1.4,4.3-3.1,6.3-5.1
		c1.8-1.8,3.6-3.9,5.2-6.2c1.5-2.3,2.9-4.6,3.9-7.1c2.2-5.1,3.3-10.6,3.3-16.3c0-5.6-1.1-11-3.4-16.3v0c-1.1-2.5-2.4-4.9-3.9-7.1
		c-1.6-2.3-3.4-4.4-5.2-6.2c-2-2-4.1-3.7-6.3-5.1c-0.4-0.3-0.9-0.6-1.5-0.9l-0.2,0.3c11.6,7.6,18.5,20.5,18.5,34.5v0.8
		c0,10.1-3.8,19.7-10.8,27.2c-7.8,8.5-18.3,13.1-29.7,13.2c0-0.8,0-1.6,0.1-2.5c5.1,0,10.1-1.1,14.8-3c4.6-1.9,8.7-4.7,12.3-8.3
		c3.5-3.5,6.3-7.7,8.3-12.3c2-4.8,3-9.8,3-15c0-5.2-1-10.3-3-15c-1.9-4.6-4.7-8.7-8.3-12.3c-3.5-3.5-7.7-6.3-12.3-8.3
		c-4.6-2-9.5-3-14.8-3c-0.1-1-0.1-1.7-0.1-1.7l-0.4,0c0,0,0,0.7-0.1,1.7c-5.1,0-10.1,1.1-14.8,3c-4.6,1.9-8.7,4.7-12.3,8.3
		c-3.5,3.5-6.3,7.7-8.3,12.3c-2,4.8-3,9.8-3,15c0,5.2,1,10.3,3,15c1.9,4.6,4.7,8.7,8.3,12.3c3.5,3.5,7.7,6.3,12.3,8.3
		c4.7,2,9.7,3,14.8,3c0,0.9,0,1.7,0.1,2.5C38.5,87.7,28,83.1,20.2,74.6c-7-7.4-10.9-17.1-10.9-27.2v-0.8c0-14,6.9-26.9,18.5-34.5
		l-0.2-0.3c-0.3,0.2-0.6,0.4-0.9,0.6c-0.2,0.1-0.4,0.2-0.5,0.3c-2.1,1.4-4.3,3.1-6.3,5.1c-1.8,1.8-3.6,3.9-5.2,6.2
		c-1.6,2.3-2.9,4.6-3.9,7.1c-2.2,5.1-3.3,10.6-3.3,16.3c0,5.6,1.1,11.1,3.3,16.3c1.1,2.5,2.4,4.9,3.9,7.1c1.6,2.3,3.4,4.4,5.2,6.2
		c2,2,4.1,3.7,6.3,5.1c2.3,1.6,4.8,2.8,7.3,3.8c3.2,1.3,6.5,2.3,10,2.8l-3.2,0.8c-0.5,0.1-0.9,0.7-0.8,1.2l0.2,0.7
		c0.1,0.5,0.7,0.9,1.2,0.8l8.9-2.3c0,0.4,0,0.7,0,1v2.6h0.4v-2.6c0-0.3,0-0.7,0-1.1l9,2.3c0.1,0,0.2,0,0.2,0c0.2,0,0.4-0.1,0.5-0.2
		c0.2-0.1,0.4-0.4,0.5-0.6l0.2-0.7c0.1-0.3,0-0.6-0.1-0.8C60.3,89.8,60.1,89.7,59.8,89.6z M45.7,38.3c-1.9,4-5.8,5.3-12.1,6.3
		c-1.7,0.3-4.1,0.5-6.6,0.7c0.7-11.7,10.1-21.2,21.9-21.7C48.3,30.2,47.3,35.1,45.7,38.3z M47,58.3c0.8,3.1,1.4,7.2,1.9,11.5
		c-12-0.6-21.6-10.3-21.9-22.3C39.8,48.4,44.7,49.9,47,58.3z M53,58.3c2.3-8.4,7.2-9.9,20.1-10.8c-0.4,12-10,21.7-21.9,22.3
		C51.6,65.4,52.2,61.3,53,58.3z M66.5,44.7c-6.3-1-10.2-2.3-12.1-6.3c-1.6-3.2-2.6-8.2-3.2-14.7c11.8,0.6,21.2,10,21.9,21.8
		C70.6,45.2,68.2,45,66.5,44.7z M49,20.9c-3.1,0.1-6.1,0.8-9,2c-3.1,1.3-5.8,3.1-8.2,5.5c-2.4,2.4-4.2,5.1-5.5,8.2
		c-1.2,2.8-1.9,5.8-2,9c-3.1,0.2-6.1,0.4-8.1,0.5c0.3-18.2,15.1-33,33.3-33.3C49.4,15.5,49.2,18.6,49,20.9z M19.6,47
		c1.7,0.1,3.2,0.2,4.7,0.3c0.1,3.2,0.7,6.4,2,9.4c1.3,3.1,3.1,5.8,5.5,8.2c2.4,2.4,5.1,4.2,8.2,5.5c2.9,1.2,5.9,1.9,9.1,2
		c0.2,2.8,0.4,5.5,0.5,8.2c-18.4-0.2-33.4-15.3-33.4-33.8C17.4,46.9,18.5,46.9,19.6,47z M50.9,72.4c3.1-0.1,6.2-0.8,9.1-2
		c3.1-1.3,5.8-3.1,8.2-5.5c2.4-2.4,4.2-5.1,5.5-8.2c1.3-3,1.9-6.1,2-9.4c1.5-0.1,3.1-0.2,4.8-0.3c1-0.1,2.1-0.1,3.3-0.2
		c0,18.5-15,33.5-33.4,33.8C50.6,77.9,50.7,75.2,50.9,72.4z M75.8,45.6c-0.1-3.1-0.8-6.1-2-9c-1.3-3.1-3.1-5.8-5.5-8.2
		c-2.4-2.4-5.1-4.2-8.2-5.5c-2.8-1.2-5.9-1.9-9.1-2c-0.2-2.4-0.3-5.4-0.5-8.1c18.2,0.3,33,15.1,33.3,33.3
		C81.9,46.1,78.9,45.9,75.8,45.6z M49.6,11.3c-4.6,0.1-9.1,1-13.3,2.8c-4.2,1.8-8,4.4-11.3,7.6c-3.2,3.2-5.8,7-7.6,11.3
		c-1.8,4.2-2.7,8.7-2.8,13.3c-0.5,0-0.8,0-0.9,0l0,0.4c0.3,0,0.6,0,0.9,0.1c0,0,0,0,0,0.1c0,4.7,0.9,9.4,2.8,13.8
		c1.8,4.2,4.4,8,7.6,11.3c3.2,3.2,7,5.8,11.3,7.6c4.3,1.8,8.8,2.7,13.4,2.8c0,0.7,0,1.4,0.1,2C29.2,84,12.5,67.3,12.5,46.7
		c0-20.6,16.6-37.3,37.2-37.5C49.7,9.8,49.6,10.6,49.6,11.3z M50.4,82.2c4.6,0,9.1-1,13.4-2.8c4.2-1.8,8-4.4,11.3-7.6
		c3.2-3.2,5.8-7,7.6-11.3c1.8-4.4,2.8-9,2.8-13.8c0,0,0,0,0-0.1c0.3,0,0.6,0,0.9-0.1l0,0c0.1,0,0.1,0,0.1,0l0.4-0.4l-0.5,0
		c0,0,0,0,0,0c0,0,0,0,0,0c-0.1,0-0.4,0-0.8,0c-0.1-4.6-1-9-2.8-13.3c-1.8-4.2-4.4-8-7.6-11.3c-3.2-3.2-7-5.8-11.3-7.6
		c-4.2-1.8-8.7-2.7-13.4-2.8c0-0.8-0.1-1.5-0.1-2.1c20.5,0.2,37.2,16.9,37.2,37.5c0,20.6-16.7,37.3-37.2,37.5
		C50.3,83.5,50.4,82.9,50.4,82.2z"/>
</g>
</svg>
