<?xml version="1.0" encoding="utf-8"?>
<!-- Generator: Adobe Illustrator 19.0.0, SVG Export Plug-In . SVG Version: 6.00 Build 0)  -->
<svg version="1.1" id="Layer_1" xmlns="http://www.w3.org/2000/svg" xmlns:xlink="http://www.w3.org/1999/xlink" x="0px" y="0px"
	 viewBox="412 0 100 100" style="enable-background:new 412 0 100 100;" xml:space="preserve">
<g>
	<path d="M457.8,7.2L439.5,0h-0.3l-18.9,3.5c-0.3,0-0.5,0.3-0.5,0.7c0,0.2,0.2,0.5,0.3,0.5c2.2,1,4.4,2,6.5,3.2
		c3.5,1.9,9.9,5.9,11.2,8.2l0,0c0.5,0.8,0.7,1.9,0.7,2.9l0.2,60.7c0,0,0.2,7.7,18.1,20c0.3,0.2,1.3,0.3,1.5,0c0,0,0,0,0-0.2V7.7
		C458.1,7.6,458.1,7.2,457.8,7.2z"/>
	<path d="M466.2,7.2L484.5,0h0.3l18.9,3.5c0.3,0,0.5,0.3,0.5,0.7c0,0.2-0.2,0.5-0.3,0.5c-2.2,1-4.4,2-6.5,3.2
		c-3.5,1.9-9.9,5.9-11.2,8.2l0,0c-0.5,1-0.7,2-0.7,3l-0.2,60.7c0,0-0.2,7.7-18.1,20c-0.3,0.2-1.3,0.3-1.5,0c0,0,0,0,0-0.2V7.7
		C465.9,7.6,465.9,7.2,466.2,7.2z"/>
</g>
</svg>
