<?xml version="1.0" encoding="utf-8"?>
<!-- Generator: Adobe Illustrator 19.0.0, SVG Export Plug-In . SVG Version: 6.00 Build 0)  -->
<svg version="1.1" id="Layer_1" xmlns="http://www.w3.org/2000/svg" xmlns:xlink="http://www.w3.org/1999/xlink" x="0px" y="0px"
	 viewBox="0 0 100 100" style="enable-background:new 0 0 100 100;" xml:space="preserve">
<path id="XMLID_16_" d="M0,33.3v33.4C0,71.3,3.7,75,8.3,75h25.6c3.9,0,7.1-2.7,8-6.5c1.3-6,4.5-10.2,8.2-10.2s6.8,4.2,8.2,10.2
	c0.8,3.8,4.1,6.5,8,6.5h25.6c4.6,0,8.3-3.7,8.3-8.3V33.3c0-4.6-3.7-8.3-8.3-8.3H8.3C3.7,25,0,28.7,0,33.3z M20.4,61.1
	c-6.1,0-11.1-5-11.1-11.1c0-6.1,5-11.1,11.1-11.1c6.1,0,11.1,5,11.1,11.1C31.5,56.1,26.6,61.1,20.4,61.1z M79.6,61.1
	c-6.1,0-11.1-5-11.1-11.1c0-6.1,5-11.1,11.1-11.1c6.1,0,11.1,5,11.1,11.1C90.7,56.1,85.7,61.1,79.6,61.1z"/>
</svg>
