<?xml version="1.0" encoding="utf-8"?>
<!-- Generator: Adobe Illustrator 19.0.0, SVG Export Plug-In . SVG Version: 6.00 Build 0)  -->
<svg version="1.1" id="Layer_1" xmlns="http://www.w3.org/2000/svg" xmlns:xlink="http://www.w3.org/1999/xlink" x="0px" y="0px"
	 viewBox="0 0 100 100" style="enable-background:new 0 0 100 100;" xml:space="preserve">
<g id="XMLID_2_">
	<path id="XMLID_5_" d="M0,55.7c-0.3-0.3,7.1,2.3,17.4-4.9c0,0,0.3,2.6,1.4,5.3c0,0-6.4,2.7-9.1,4.6c0,0,5.2,17.3,10.9,18.4
		l-7.1-0.9C13.5,78.3,7,62.8,0,55.7z"/>
	<path id="XMLID_8_" d="M14.1,62.2c0,0,3.8,0.2,6.5-1.5c0,0,1.1,1.9,1.8,2.3l-3.2,1.6c0,0,3.3,8.7,6.4,10.4l-4.7-0.7
		C20.8,74.4,17.6,65.7,14.1,62.2z"/>
	<path id="XMLID_7_" d="M100,55.7c0.3-0.3-7.1,2.3-17.4-4.9c0,0-0.3,2.6-1.4,5.3c0,0,6.4,2.7,9.1,4.6c0,0-5.2,17.3-10.9,18.4
		l7.1-0.9C86.5,78.3,93,62.8,100,55.7z"/>
	<path id="XMLID_4_" d="M85.9,62.2c0,0-3.8,0.2-6.5-1.5c0,0-1.1,1.9-1.8,2.3l3.2,1.6c0,0-3.3,8.7-6.4,10.4l4.7-0.7
		C79.2,74.4,82.4,65.7,85.9,62.2z"/>
	<g id="XMLID_12_">
		<path id="XMLID_13_" d="M78.3,43.7C51.6,29.9,50,20.8,50,20.8s-1.6,9-28.3,22.9c0,0-3.6,13.9,9.5,27.1
			c-15.8-22,2.7-22.2,18.8-34.2c16.2,12,34.6,12.2,18.8,34.2C82,57.6,78.3,43.7,78.3,43.7z"/>
		<path id="XMLID_14_" d="M50,41.3c0,0-0.3,5.4-18.6,14.9c0,0-1.3,11.8,6.2,17.6C27.3,59.4,42,57.9,50,51.5
			c8,6.4,22.7,7.9,12.4,22.3c7.5-5.8,6.2-17.6,6.2-17.6C50.3,46.7,50,41.3,50,41.3z"/>
		<path id="XMLID_15_" d="M50,55.4C47.7,61.5,37.7,65,37.7,65C37.4,73.7,42,76.8,42,76.8c-7.8-10.7,3.2-9.9,8-14.5
			c4.8,4.5,15.8,3.8,8,14.5c0,0,4.6-3.1,4.3-11.8C62.3,65,52.3,61.5,50,55.4z"/>
	</g>
</g>
</svg>
